<mxfile host="65bd71144e">
    <diagram id="QyFkRlclYH_Wge8nbu0W" name="拆包图">
        <mxGraphModel dx="1888" dy="764" grid="1" gridSize="10" guides="1" tooltips="1" connect="1" arrows="1" fold="1" page="1" pageScale="1" pageWidth="827" pageHeight="1169" math="0" shadow="0">
            <root>
                <mxCell id="UaKJABe7PAXAUNxV_94r-0"/>
                <mxCell id="UaKJABe7PAXAUNxV_94r-1" parent="UaKJABe7PAXAUNxV_94r-0"/>
                <mxCell id="UaKJABe7PAXAUNxV_94r-35" value="" style="rounded=1;whiteSpace=wrap;html=1;strokeColor=#FFFFFF;fillColor=none;" parent="UaKJABe7PAXAUNxV_94r-1" vertex="1">
                    <mxGeometry x="530" y="230" width="230" height="270" as="geometry"/>
                </mxCell>
                <mxCell id="UaKJABe7PAXAUNxV_94r-33" value="" style="rounded=1;whiteSpace=wrap;html=1;strokeColor=#FFFFFF;fillColor=none;" parent="UaKJABe7PAXAUNxV_94r-1" vertex="1">
                    <mxGeometry x="60" y="230" width="230" height="270" as="geometry"/>
                </mxCell>
                <mxCell id="UaKJABe7PAXAUNxV_94r-8" value="tcp连接" style="text;html=1;strokeColor=none;fillColor=none;align=center;verticalAlign=middle;whiteSpace=wrap;rounded=0;" parent="UaKJABe7PAXAUNxV_94r-1" vertex="1">
                    <mxGeometry x="384" y="320" width="60" height="30" as="geometry"/>
                </mxCell>
                <mxCell id="UaKJABe7PAXAUNxV_94r-12" value="" style="rounded=0;whiteSpace=wrap;html=1;" parent="UaKJABe7PAXAUNxV_94r-1" vertex="1">
                    <mxGeometry x="210" y="360" width="80" height="30" as="geometry"/>
                </mxCell>
                <mxCell id="UaKJABe7PAXAUNxV_94r-14" value="" style="rounded=0;whiteSpace=wrap;html=1;fillColor=#1ba1e2;fontColor=#ffffff;strokeColor=#FFFFFF;" parent="UaKJABe7PAXAUNxV_94r-1" vertex="1">
                    <mxGeometry x="250" y="360" width="40" height="30" as="geometry"/>
                </mxCell>
                <mxCell id="UaKJABe7PAXAUNxV_94r-20" value="" style="rounded=0;whiteSpace=wrap;html=1;" parent="UaKJABe7PAXAUNxV_94r-1" vertex="1">
                    <mxGeometry x="290" y="350" width="240" height="20" as="geometry"/>
                </mxCell>
                <mxCell id="UaKJABe7PAXAUNxV_94r-15" value="" style="rounded=0;whiteSpace=wrap;html=1;fillColor=#1ba1e2;fontColor=#ffffff;strokeColor=#FFFFFF;" parent="UaKJABe7PAXAUNxV_94r-1" vertex="1">
                    <mxGeometry x="324" y="350" width="66" height="20" as="geometry"/>
                </mxCell>
                <mxCell id="UaKJABe7PAXAUNxV_94r-22" value="os发送缓冲" style="text;html=1;strokeColor=none;fillColor=none;align=center;verticalAlign=middle;whiteSpace=wrap;rounded=0;" parent="UaKJABe7PAXAUNxV_94r-1" vertex="1">
                    <mxGeometry x="140" y="360" width="70" height="30" as="geometry"/>
                </mxCell>
                <mxCell id="UaKJABe7PAXAUNxV_94r-23" value="" style="rounded=0;whiteSpace=wrap;html=1;" parent="UaKJABe7PAXAUNxV_94r-1" vertex="1">
                    <mxGeometry x="210" y="330" width="80" height="30" as="geometry"/>
                </mxCell>
                <mxCell id="UaKJABe7PAXAUNxV_94r-24" value="os接收缓冲" style="text;html=1;strokeColor=none;fillColor=none;align=center;verticalAlign=middle;whiteSpace=wrap;rounded=0;" parent="UaKJABe7PAXAUNxV_94r-1" vertex="1">
                    <mxGeometry x="140" y="330" width="70" height="30" as="geometry"/>
                </mxCell>
                <mxCell id="UaKJABe7PAXAUNxV_94r-25" value="" style="rounded=0;whiteSpace=wrap;html=1;" parent="UaKJABe7PAXAUNxV_94r-1" vertex="1">
                    <mxGeometry x="140" y="405" width="150" height="60" as="geometry"/>
                </mxCell>
                <mxCell id="UaKJABe7PAXAUNxV_94r-26" value="" style="rounded=0;whiteSpace=wrap;html=1;fillColor=#1ba1e2;fontColor=#ffffff;strokeColor=#FFFFFF;" parent="UaKJABe7PAXAUNxV_94r-1" vertex="1">
                    <mxGeometry x="140" y="405" width="130" height="60" as="geometry"/>
                </mxCell>
                <mxCell id="UaKJABe7PAXAUNxV_94r-27" value="" style="rounded=0;whiteSpace=wrap;html=1;" parent="UaKJABe7PAXAUNxV_94r-1" vertex="1">
                    <mxGeometry x="530" y="360" width="80" height="30" as="geometry"/>
                </mxCell>
                <mxCell id="UaKJABe7PAXAUNxV_94r-29" value="os发送缓冲" style="text;html=1;strokeColor=none;fillColor=none;align=center;verticalAlign=middle;whiteSpace=wrap;rounded=0;" parent="UaKJABe7PAXAUNxV_94r-1" vertex="1">
                    <mxGeometry x="620" y="360" width="70" height="30" as="geometry"/>
                </mxCell>
                <mxCell id="UaKJABe7PAXAUNxV_94r-30" value="" style="rounded=0;whiteSpace=wrap;html=1;" parent="UaKJABe7PAXAUNxV_94r-1" vertex="1">
                    <mxGeometry x="530" y="330" width="80" height="30" as="geometry"/>
                </mxCell>
                <mxCell id="UaKJABe7PAXAUNxV_94r-31" value="os接收缓冲" style="text;html=1;strokeColor=none;fillColor=none;align=center;verticalAlign=middle;whiteSpace=wrap;rounded=0;" parent="UaKJABe7PAXAUNxV_94r-1" vertex="1">
                    <mxGeometry x="620" y="330" width="70" height="30" as="geometry"/>
                </mxCell>
                <mxCell id="UaKJABe7PAXAUNxV_94r-32" value="发货区" style="text;html=1;strokeColor=none;fillColor=none;align=center;verticalAlign=middle;whiteSpace=wrap;rounded=0;" parent="UaKJABe7PAXAUNxV_94r-1" vertex="1">
                    <mxGeometry x="70" y="420" width="80" height="30" as="geometry"/>
                </mxCell>
                <mxCell id="UaKJABe7PAXAUNxV_94r-34" value="客户端" style="text;html=1;strokeColor=none;fillColor=none;align=center;verticalAlign=middle;whiteSpace=wrap;rounded=0;" parent="UaKJABe7PAXAUNxV_94r-1" vertex="1">
                    <mxGeometry x="140" y="200" width="60" height="30" as="geometry"/>
                </mxCell>
                <mxCell id="UaKJABe7PAXAUNxV_94r-36" value="" style="rounded=0;whiteSpace=wrap;html=1;" parent="UaKJABe7PAXAUNxV_94r-1" vertex="1">
                    <mxGeometry x="140" y="260" width="150" height="60" as="geometry"/>
                </mxCell>
                <mxCell id="UaKJABe7PAXAUNxV_94r-37" value="收货区" style="text;html=1;strokeColor=none;fillColor=none;align=center;verticalAlign=middle;whiteSpace=wrap;rounded=0;" parent="UaKJABe7PAXAUNxV_94r-1" vertex="1">
                    <mxGeometry x="70" y="275" width="80" height="30" as="geometry"/>
                </mxCell>
                <mxCell id="UaKJABe7PAXAUNxV_94r-38" value="" style="rounded=0;whiteSpace=wrap;html=1;" parent="UaKJABe7PAXAUNxV_94r-1" vertex="1">
                    <mxGeometry x="530" y="260" width="150" height="60" as="geometry"/>
                </mxCell>
                <mxCell id="UaKJABe7PAXAUNxV_94r-39" value="收货区" style="text;html=1;strokeColor=none;fillColor=none;align=center;verticalAlign=middle;whiteSpace=wrap;rounded=0;" parent="UaKJABe7PAXAUNxV_94r-1" vertex="1">
                    <mxGeometry x="680" y="275" width="80" height="30" as="geometry"/>
                </mxCell>
                <mxCell id="UaKJABe7PAXAUNxV_94r-40" value="" style="rounded=0;whiteSpace=wrap;html=1;" parent="UaKJABe7PAXAUNxV_94r-1" vertex="1">
                    <mxGeometry x="530" y="405" width="150" height="60" as="geometry"/>
                </mxCell>
                <mxCell id="UaKJABe7PAXAUNxV_94r-41" value="发货区" style="text;html=1;strokeColor=none;fillColor=none;align=center;verticalAlign=middle;whiteSpace=wrap;rounded=0;" parent="UaKJABe7PAXAUNxV_94r-1" vertex="1">
                    <mxGeometry x="680" y="435" width="80" height="30" as="geometry"/>
                </mxCell>
                <mxCell id="UaKJABe7PAXAUNxV_94r-42" value="服务端" style="text;html=1;strokeColor=none;fillColor=none;align=center;verticalAlign=middle;whiteSpace=wrap;rounded=0;" parent="UaKJABe7PAXAUNxV_94r-1" vertex="1">
                    <mxGeometry x="620" y="200" width="60" height="30" as="geometry"/>
                </mxCell>
                <mxCell id="0" value="" style="rounded=0;whiteSpace=wrap;html=1;fillColor=#1ba1e2;fontColor=#ffffff;strokeColor=#FFFFFF;" parent="UaKJABe7PAXAUNxV_94r-1" vertex="1">
                    <mxGeometry x="600" y="330" width="10" height="30" as="geometry"/>
                </mxCell>
                <mxCell id="1" value="当缓冲区满了，tcp窗口会变成0" style="text;html=1;strokeColor=none;fillColor=none;align=center;verticalAlign=middle;whiteSpace=wrap;rounded=0;" parent="UaKJABe7PAXAUNxV_94r-1" vertex="1">
                    <mxGeometry x="329" y="375" width="170" height="30" as="geometry"/>
                </mxCell>
            </root>
        </mxGraphModel>
    </diagram>
    <diagram id="Biu67a_eYHCAKZCPrpXr" name="Model-1">
        <mxGraphModel dx="2290" dy="472" grid="0" gridSize="10" guides="1" tooltips="1" connect="1" arrows="1" fold="1" page="0" pageScale="1" pageWidth="827" pageHeight="1169" math="0" shadow="0">
            <root>
                <mxCell id="wnQJwDpq4NG_0scp0d9E-0"/>
                <mxCell id="wnQJwDpq4NG_0scp0d9E-1" parent="wnQJwDpq4NG_0scp0d9E-0"/>
                <mxCell id="uRYG12ZJpqSl4SAKRl5s-8" value="" style="rounded=0;whiteSpace=wrap;html=1;" parent="wnQJwDpq4NG_0scp0d9E-1" vertex="1">
                    <mxGeometry x="230" y="590" width="287" height="180" as="geometry"/>
                </mxCell>
                <mxCell id="uRYG12ZJpqSl4SAKRl5s-10" style="edgeStyle=none;html=1;entryX=0;entryY=0.25;entryDx=0;entryDy=0;" parent="wnQJwDpq4NG_0scp0d9E-1" source="uRYG12ZJpqSl4SAKRl5s-0" target="uRYG12ZJpqSl4SAKRl5s-3" edge="1">
                    <mxGeometry relative="1" as="geometry"/>
                </mxCell>
                <mxCell id="uRYG12ZJpqSl4SAKRl5s-0" value="client" style="rounded=1;whiteSpace=wrap;html=1;" parent="wnQJwDpq4NG_0scp0d9E-1" vertex="1">
                    <mxGeometry x="-220" y="510" width="120" height="30" as="geometry"/>
                </mxCell>
                <mxCell id="uRYG12ZJpqSl4SAKRl5s-11" style="edgeStyle=none;html=1;entryX=0;entryY=0.5;entryDx=0;entryDy=0;" parent="wnQJwDpq4NG_0scp0d9E-1" source="uRYG12ZJpqSl4SAKRl5s-1" target="uRYG12ZJpqSl4SAKRl5s-3" edge="1">
                    <mxGeometry relative="1" as="geometry"/>
                </mxCell>
                <mxCell id="uRYG12ZJpqSl4SAKRl5s-1" value="client" style="rounded=1;whiteSpace=wrap;html=1;" parent="wnQJwDpq4NG_0scp0d9E-1" vertex="1">
                    <mxGeometry x="-220" y="560" width="120" height="30" as="geometry"/>
                </mxCell>
                <mxCell id="uRYG12ZJpqSl4SAKRl5s-12" style="edgeStyle=none;html=1;entryX=0;entryY=0.75;entryDx=0;entryDy=0;" parent="wnQJwDpq4NG_0scp0d9E-1" source="uRYG12ZJpqSl4SAKRl5s-2" target="uRYG12ZJpqSl4SAKRl5s-3" edge="1">
                    <mxGeometry relative="1" as="geometry"/>
                </mxCell>
                <mxCell id="uRYG12ZJpqSl4SAKRl5s-2" value="client" style="rounded=1;whiteSpace=wrap;html=1;" parent="wnQJwDpq4NG_0scp0d9E-1" vertex="1">
                    <mxGeometry x="-220" y="610" width="120" height="30" as="geometry"/>
                </mxCell>
                <mxCell id="uRYG12ZJpqSl4SAKRl5s-16" style="edgeStyle=none;html=1;" parent="wnQJwDpq4NG_0scp0d9E-1" source="uRYG12ZJpqSl4SAKRl5s-3" target="uRYG12ZJpqSl4SAKRl5s-8" edge="1">
                    <mxGeometry relative="1" as="geometry"/>
                </mxCell>
                <mxCell id="uRYG12ZJpqSl4SAKRl5s-3" value="MainReactor&lt;br&gt;(主线程中运行,round robin)" style="rounded=1;whiteSpace=wrap;html=1;" parent="wnQJwDpq4NG_0scp0d9E-1" vertex="1">
                    <mxGeometry x="270" y="415" width="206" height="95" as="geometry"/>
                </mxCell>
                <mxCell id="uRYG12ZJpqSl4SAKRl5s-4" value="SubReactor1" style="rounded=1;whiteSpace=wrap;html=1;" parent="wnQJwDpq4NG_0scp0d9E-1" vertex="1">
                    <mxGeometry x="250" y="610" width="120" height="60" as="geometry"/>
                </mxCell>
                <mxCell id="uRYG12ZJpqSl4SAKRl5s-5" value="SubReactor2" style="rounded=1;whiteSpace=wrap;html=1;" parent="wnQJwDpq4NG_0scp0d9E-1" vertex="1">
                    <mxGeometry x="380" y="610" width="120" height="60" as="geometry"/>
                </mxCell>
                <mxCell id="uRYG12ZJpqSl4SAKRl5s-6" value="SubReactor4" style="rounded=1;whiteSpace=wrap;html=1;" parent="wnQJwDpq4NG_0scp0d9E-1" vertex="1">
                    <mxGeometry x="250" y="680" width="120" height="70" as="geometry"/>
                </mxCell>
                <mxCell id="uRYG12ZJpqSl4SAKRl5s-7" value="SubReactor4" style="rounded=1;whiteSpace=wrap;html=1;" parent="wnQJwDpq4NG_0scp0d9E-1" vertex="1">
                    <mxGeometry x="380" y="680" width="120" height="70" as="geometry"/>
                </mxCell>
                <mxCell id="uRYG12ZJpqSl4SAKRl5s-9" value="reactor pool" style="text;html=1;strokeColor=none;fillColor=none;align=center;verticalAlign=middle;whiteSpace=wrap;rounded=0;" parent="wnQJwDpq4NG_0scp0d9E-1" vertex="1">
                    <mxGeometry x="517" y="665" width="90" height="30" as="geometry"/>
                </mxCell>
                <mxCell id="uRYG12ZJpqSl4SAKRl5s-13" value="连接请求" style="text;html=1;strokeColor=none;fillColor=none;align=center;verticalAlign=middle;whiteSpace=wrap;rounded=0;" parent="wnQJwDpq4NG_0scp0d9E-1" vertex="1">
                    <mxGeometry x="20" y="447.5" width="60" height="30" as="geometry"/>
                </mxCell>
                <mxCell id="uRYG12ZJpqSl4SAKRl5s-17" value="notify&lt;br&gt;(主线程处理完请求连接后，通知子线程并将acceptfd写入子线程的消息队列）" style="text;html=1;strokeColor=none;fillColor=none;align=center;verticalAlign=middle;whiteSpace=wrap;rounded=0;" parent="wnQJwDpq4NG_0scp0d9E-1" vertex="1">
                    <mxGeometry x="370" y="530" width="430" height="30" as="geometry"/>
                </mxCell>
                <mxCell id="uRYG12ZJpqSl4SAKRl5s-18" value="消息队列" style="rounded=0;whiteSpace=wrap;html=1;" parent="wnQJwDpq4NG_0scp0d9E-1" vertex="1">
                    <mxGeometry x="250" y="645" width="120" height="20" as="geometry"/>
                </mxCell>
                <mxCell id="uRYG12ZJpqSl4SAKRl5s-19" value="消息队列" style="rounded=0;whiteSpace=wrap;html=1;" parent="wnQJwDpq4NG_0scp0d9E-1" vertex="1">
                    <mxGeometry x="380" y="645" width="120" height="20" as="geometry"/>
                </mxCell>
                <mxCell id="uRYG12ZJpqSl4SAKRl5s-20" value="消息队列" style="rounded=0;whiteSpace=wrap;html=1;" parent="wnQJwDpq4NG_0scp0d9E-1" vertex="1">
                    <mxGeometry x="250" y="720" width="120" height="20" as="geometry"/>
                </mxCell>
                <mxCell id="uRYG12ZJpqSl4SAKRl5s-21" value="消息队列" style="rounded=0;whiteSpace=wrap;html=1;" parent="wnQJwDpq4NG_0scp0d9E-1" vertex="1">
                    <mxGeometry x="380" y="720" width="120" height="20" as="geometry"/>
                </mxCell>
                <mxCell id="uRYG12ZJpqSl4SAKRl5s-22" value="" style="endArrow=none;dashed=1;html=1;exitX=1;exitY=0.5;exitDx=0;exitDy=0;entryX=0;entryY=0.25;entryDx=0;entryDy=0;" parent="wnQJwDpq4NG_0scp0d9E-1" source="uRYG12ZJpqSl4SAKRl5s-0" target="uRYG12ZJpqSl4SAKRl5s-4" edge="1">
                    <mxGeometry width="50" height="50" relative="1" as="geometry">
                        <mxPoint x="550" y="470" as="sourcePoint"/>
                        <mxPoint x="600" y="420" as="targetPoint"/>
                    </mxGeometry>
                </mxCell>
                <mxCell id="uRYG12ZJpqSl4SAKRl5s-24" value="" style="endArrow=none;dashed=1;html=1;exitX=1;exitY=0.5;exitDx=0;exitDy=0;entryX=0;entryY=0.25;entryDx=0;entryDy=0;" parent="wnQJwDpq4NG_0scp0d9E-1" source="uRYG12ZJpqSl4SAKRl5s-1" target="uRYG12ZJpqSl4SAKRl5s-6" edge="1">
                    <mxGeometry width="50" height="50" relative="1" as="geometry">
                        <mxPoint x="550" y="460" as="sourcePoint"/>
                        <mxPoint x="260" y="700" as="targetPoint"/>
                    </mxGeometry>
                </mxCell>
                <mxCell id="uRYG12ZJpqSl4SAKRl5s-25" value="" style="endArrow=none;dashed=1;html=1;exitX=1;exitY=0.25;exitDx=0;exitDy=0;entryX=0;entryY=0.25;entryDx=0;entryDy=0;" parent="wnQJwDpq4NG_0scp0d9E-1" source="uRYG12ZJpqSl4SAKRl5s-2" target="uRYG12ZJpqSl4SAKRl5s-6" edge="1">
                    <mxGeometry width="50" height="50" relative="1" as="geometry">
                        <mxPoint x="550" y="460" as="sourcePoint"/>
                        <mxPoint x="600" y="410" as="targetPoint"/>
                    </mxGeometry>
                </mxCell>
                <mxCell id="uRYG12ZJpqSl4SAKRl5s-26" value="用于数据收发的acceptfd" style="text;html=1;strokeColor=none;fillColor=none;align=center;verticalAlign=middle;whiteSpace=wrap;rounded=0;" parent="wnQJwDpq4NG_0scp0d9E-1" vertex="1">
                    <mxGeometry x="-10" y="600" width="180" height="30" as="geometry"/>
                </mxCell>
            </root>
        </mxGraphModel>
    </diagram>
    <diagram id="PvpKgmDp-BPa8ZGQhezf" name="Model-2">
        <mxGraphModel dx="2290" dy="1272" grid="0" gridSize="10" guides="1" tooltips="1" connect="1" arrows="1" fold="1" page="0" pageScale="1" pageWidth="827" pageHeight="1169" math="0" shadow="0">
            <root>
                <mxCell id="0"/>
                <mxCell id="1" parent="0"/>
                <mxCell id="qmhwZYC7tP6_yZCLhKVV-6" value="" style="rounded=0;whiteSpace=wrap;html=1;shadow=0;sketch=0;" parent="1" vertex="1">
                    <mxGeometry x="287" y="-35" width="417" height="238" as="geometry"/>
                </mxCell>
                <mxCell id="qmhwZYC7tP6_yZCLhKVV-3" value="server进程" style="text;html=1;strokeColor=none;fillColor=none;align=center;verticalAlign=middle;whiteSpace=wrap;rounded=0;shadow=0;sketch=0;" parent="1" vertex="1">
                    <mxGeometry x="458" y="-65" width="60" height="30" as="geometry"/>
                </mxCell>
                <mxCell id="qmhwZYC7tP6_yZCLhKVV-7" value="main线程&lt;br&gt;tcp_server+event_loop" style="rounded=1;whiteSpace=wrap;html=1;shadow=0;sketch=0;" parent="1" vertex="1">
                    <mxGeometry x="312" y="-24" width="133" height="216" as="geometry"/>
                </mxCell>
                <mxCell id="qmhwZYC7tP6_yZCLhKVV-8" value="子线程1&lt;br&gt;线程栈上创建tcp_server和event_loop" style="rounded=1;whiteSpace=wrap;html=1;shadow=0;sketch=0;" parent="1" vertex="1">
                    <mxGeometry x="469" y="-24" width="218" height="60" as="geometry"/>
                </mxCell>
                <mxCell id="qmhwZYC7tP6_yZCLhKVV-11" value="子线程2&lt;br&gt;线程栈上创建tcp_server和event_loop" style="rounded=1;whiteSpace=wrap;html=1;shadow=0;sketch=0;" parent="1" vertex="1">
                    <mxGeometry x="469" y="57" width="218" height="60" as="geometry"/>
                </mxCell>
                <mxCell id="qmhwZYC7tP6_yZCLhKVV-12" value="子线程3&lt;br&gt;线程栈上创建tcp_server和event_loop" style="rounded=1;whiteSpace=wrap;html=1;shadow=0;sketch=0;" parent="1" vertex="1">
                    <mxGeometry x="469" y="131" width="218" height="60" as="geometry"/>
                </mxCell>
                <mxCell id="qmhwZYC7tP6_yZCLhKVV-14" style="edgeStyle=none;html=1;entryX=0;entryY=0.5;entryDx=0;entryDy=0;" parent="1" source="qmhwZYC7tP6_yZCLhKVV-13" target="qmhwZYC7tP6_yZCLhKVV-6" edge="1">
                    <mxGeometry relative="1" as="geometry"/>
                </mxCell>
                <mxCell id="qmhwZYC7tP6_yZCLhKVV-13" value="client" style="rounded=0;whiteSpace=wrap;html=1;shadow=0;sketch=0;" parent="1" vertex="1">
                    <mxGeometry x="-279" y="54" width="120" height="60" as="geometry"/>
                </mxCell>
                <mxCell id="qmhwZYC7tP6_yZCLhKVV-15" value="发起请求" style="text;html=1;strokeColor=none;fillColor=none;align=center;verticalAlign=middle;whiteSpace=wrap;rounded=0;shadow=0;sketch=0;" parent="1" vertex="1">
                    <mxGeometry x="133" y="54" width="60" height="30" as="geometry"/>
                </mxCell>
                <mxCell id="qmhwZYC7tP6_yZCLhKVV-16" value="server内部所有线程都监听同一个ip+port，使用SO_REUSEPORT来避免竞争，由内核决定唤醒哪个线程(epoll_wait返回)" style="text;html=1;strokeColor=none;fillColor=none;align=center;verticalAlign=middle;whiteSpace=wrap;rounded=0;shadow=0;sketch=0;" parent="1" vertex="1">
                    <mxGeometry x="-120" y="90" width="368.5" height="30" as="geometry"/>
                </mxCell>
            </root>
        </mxGraphModel>
    </diagram>
    <diagram id="60ihpKsAWhAbs5bGcW4B" name="时序图">
        <mxGraphModel dx="2690" dy="991" grid="1" gridSize="10" guides="1" tooltips="1" connect="1" arrows="1" fold="1" page="0" pageScale="1" pageWidth="827" pageHeight="1169" math="0" shadow="0">
            <root>
                <mxCell id="0"/>
                <mxCell id="1" parent="0"/>
                <mxCell id="-fPaBRHo4Wx5OEPFAU4z-1" value="主线程" style="shape=umlLifeline;perimeter=lifelinePerimeter;whiteSpace=wrap;html=1;container=1;collapsible=0;recursiveResize=0;outlineConnect=0;" parent="1" vertex="1">
                    <mxGeometry x="-210" y="50" width="100" height="530" as="geometry"/>
                </mxCell>
                <mxCell id="-fPaBRHo4Wx5OEPFAU4z-2" value="" style="html=1;points=[];perimeter=orthogonalPerimeter;" parent="-fPaBRHo4Wx5OEPFAU4z-1" vertex="1">
                    <mxGeometry x="45" y="70" width="10" height="40" as="geometry"/>
                </mxCell>
                <mxCell id="-fPaBRHo4Wx5OEPFAU4z-3" value="初始化" style="text;html=1;strokeColor=none;fillColor=none;align=center;verticalAlign=middle;whiteSpace=wrap;rounded=0;" parent="-fPaBRHo4Wx5OEPFAU4z-1" vertex="1">
                    <mxGeometry x="-15" y="75" width="60" height="30" as="geometry"/>
                </mxCell>
                <mxCell id="-fPaBRHo4Wx5OEPFAU4z-4" value="子线程1-N" style="shape=umlLifeline;perimeter=lifelinePerimeter;whiteSpace=wrap;html=1;container=1;collapsible=0;recursiveResize=0;outlineConnect=0;" parent="1" vertex="1">
                    <mxGeometry x="-20" y="50" width="100" height="540" as="geometry"/>
                </mxCell>
                <mxCell id="-fPaBRHo4Wx5OEPFAU4z-5" value="" style="html=1;points=[];perimeter=orthogonalPerimeter;" parent="-fPaBRHo4Wx5OEPFAU4z-4" vertex="1">
                    <mxGeometry x="45" y="300" width="10" height="170" as="geometry"/>
                </mxCell>
                <mxCell id="-fPaBRHo4Wx5OEPFAU4z-6" value="" style="html=1;points=[];perimeter=orthogonalPerimeter;" parent="-fPaBRHo4Wx5OEPFAU4z-4" vertex="1">
                    <mxGeometry x="45" y="110" width="10" height="30" as="geometry"/>
                </mxCell>
                <mxCell id="-fPaBRHo4Wx5OEPFAU4z-7" value="" style="html=1;points=[];perimeter=orthogonalPerimeter;" parent="-fPaBRHo4Wx5OEPFAU4z-4" vertex="1">
                    <mxGeometry x="45" y="190" width="10" height="30" as="geometry"/>
                </mxCell>
                <mxCell id="-fPaBRHo4Wx5OEPFAU4z-8" style="edgeStyle=none;html=1;" parent="-fPaBRHo4Wx5OEPFAU4z-4" source="-fPaBRHo4Wx5OEPFAU4z-7" target="-fPaBRHo4Wx5OEPFAU4z-7" edge="1">
                    <mxGeometry relative="1" as="geometry"/>
                </mxCell>
                <mxCell id="-fPaBRHo4Wx5OEPFAU4z-9" style="edgeStyle=none;html=1;entryX=0.967;entryY=1.022;entryDx=0;entryDy=0;entryPerimeter=0;" parent="-fPaBRHo4Wx5OEPFAU4z-4" source="-fPaBRHo4Wx5OEPFAU4z-6" target="-fPaBRHo4Wx5OEPFAU4z-6" edge="1">
                    <mxGeometry relative="1" as="geometry"/>
                </mxCell>
                <mxCell id="-fPaBRHo4Wx5OEPFAU4z-10" style="edgeStyle=none;html=1;" parent="1" source="-fPaBRHo4Wx5OEPFAU4z-14" target="-fPaBRHo4Wx5OEPFAU4z-7" edge="1">
                    <mxGeometry relative="1" as="geometry">
                        <mxPoint x="-480" y="235" as="sourcePoint"/>
                        <mxPoint x="-160" y="250" as="targetPoint"/>
                        <Array as="points">
                            <mxPoint x="-380" y="240"/>
                        </Array>
                    </mxGeometry>
                </mxCell>
                <mxCell id="-fPaBRHo4Wx5OEPFAU4z-11" value="" style="shape=umlActor;verticalLabelPosition=bottom;verticalAlign=top;html=1;" parent="1" vertex="1">
                    <mxGeometry x="-460" y="160" width="30" height="60" as="geometry"/>
                </mxCell>
                <mxCell id="-fPaBRHo4Wx5OEPFAU4z-12" value="" style="endArrow=none;dashed=1;html=1;dashPattern=1 3;strokeWidth=2;startArrow=none;" parent="1" source="-fPaBRHo4Wx5OEPFAU4z-14" target="-fPaBRHo4Wx5OEPFAU4z-11" edge="1">
                    <mxGeometry width="50" height="50" relative="1" as="geometry">
                        <mxPoint x="-445" y="550" as="sourcePoint"/>
                        <mxPoint x="255" y="160" as="targetPoint"/>
                    </mxGeometry>
                </mxCell>
                <mxCell id="-fPaBRHo4Wx5OEPFAU4z-13" value="" style="endArrow=none;dashed=1;html=1;dashPattern=1 3;strokeWidth=2;startArrow=none;" parent="1" source="-fPaBRHo4Wx5OEPFAU4z-21" target="-fPaBRHo4Wx5OEPFAU4z-14" edge="1">
                    <mxGeometry width="50" height="50" relative="1" as="geometry">
                        <mxPoint x="-445" y="380" as="sourcePoint"/>
                        <mxPoint x="-445" y="220" as="targetPoint"/>
                    </mxGeometry>
                </mxCell>
                <mxCell id="-fPaBRHo4Wx5OEPFAU4z-14" value="" style="html=1;points=[];perimeter=orthogonalPerimeter;" parent="1" vertex="1">
                    <mxGeometry x="-450" y="240" width="10" height="110" as="geometry"/>
                </mxCell>
                <mxCell id="-fPaBRHo4Wx5OEPFAU4z-15" value="tcp链接请求" style="text;html=1;strokeColor=none;fillColor=none;align=center;verticalAlign=middle;whiteSpace=wrap;rounded=0;" parent="1" vertex="1">
                    <mxGeometry x="-390" y="210" width="70" height="30" as="geometry"/>
                </mxCell>
                <mxCell id="-fPaBRHo4Wx5OEPFAU4z-16" value="acceptor处理新链接" style="text;html=1;strokeColor=none;fillColor=none;align=center;verticalAlign=middle;whiteSpace=wrap;rounded=0;" parent="1" vertex="1">
                    <mxGeometry x="50" y="240" width="140" height="30" as="geometry"/>
                </mxCell>
                <mxCell id="-fPaBRHo4Wx5OEPFAU4z-17" style="edgeStyle=none;html=1;" parent="1" source="-fPaBRHo4Wx5OEPFAU4z-14" target="-fPaBRHo4Wx5OEPFAU4z-5" edge="1">
                    <mxGeometry relative="1" as="geometry">
                        <mxPoint x="-440" y="410" as="sourcePoint"/>
                        <Array as="points">
                            <mxPoint x="-270" y="350"/>
                        </Array>
                    </mxGeometry>
                </mxCell>
                <mxCell id="-fPaBRHo4Wx5OEPFAU4z-18" value="发送业务数据" style="text;html=1;strokeColor=none;fillColor=none;align=center;verticalAlign=middle;whiteSpace=wrap;rounded=0;" parent="1" vertex="1">
                    <mxGeometry x="-400" y="350" width="90" height="30" as="geometry"/>
                </mxCell>
                <mxCell id="-fPaBRHo4Wx5OEPFAU4z-19" style="edgeStyle=none;html=1;" parent="1" source="-fPaBRHo4Wx5OEPFAU4z-5" target="-fPaBRHo4Wx5OEPFAU4z-21" edge="1">
                    <mxGeometry relative="1" as="geometry">
                        <Array as="points">
                            <mxPoint x="-220" y="520"/>
                        </Array>
                        <mxPoint y="520" as="sourcePoint"/>
                    </mxGeometry>
                </mxCell>
                <mxCell id="-fPaBRHo4Wx5OEPFAU4z-20" value="&lt;br&gt;1,接收数据&lt;br&gt;2,回调判断数据有效性判断&lt;br&gt;3,如果数据有效,回调上层通知数据已接收完成&lt;br&gt;4,上层处理数据" style="text;html=1;strokeColor=none;fillColor=none;align=left;verticalAlign=middle;whiteSpace=wrap;rounded=0;" parent="1" vertex="1">
                    <mxGeometry x="40" y="400" width="270" height="30" as="geometry"/>
                </mxCell>
                <mxCell id="-fPaBRHo4Wx5OEPFAU4z-21" value="" style="html=1;points=[];perimeter=orthogonalPerimeter;" parent="1" vertex="1">
                    <mxGeometry x="-450" y="520" width="10" height="60" as="geometry"/>
                </mxCell>
                <mxCell id="-fPaBRHo4Wx5OEPFAU4z-22" value="返回数据做业务逻辑" style="text;html=1;strokeColor=none;fillColor=none;align=center;verticalAlign=middle;whiteSpace=wrap;rounded=0;" parent="1" vertex="1">
                    <mxGeometry x="-410" y="520" width="140" height="30" as="geometry"/>
                </mxCell>
                <mxCell id="-fPaBRHo4Wx5OEPFAU4z-23" style="edgeStyle=none;html=1;" parent="1" source="-fPaBRHo4Wx5OEPFAU4z-2" target="-fPaBRHo4Wx5OEPFAU4z-6" edge="1">
                    <mxGeometry relative="1" as="geometry"/>
                </mxCell>
                <mxCell id="-fPaBRHo4Wx5OEPFAU4z-24" value="启动子线程" style="text;html=1;strokeColor=none;fillColor=none;align=center;verticalAlign=middle;whiteSpace=wrap;rounded=0;" parent="1" vertex="1">
                    <mxGeometry x="-110" y="130" width="90" height="30" as="geometry"/>
                </mxCell>
                <mxCell id="-fPaBRHo4Wx5OEPFAU4z-25" value="注册各种回调接口" style="text;html=1;strokeColor=none;fillColor=none;align=center;verticalAlign=middle;whiteSpace=wrap;rounded=0;" parent="1" vertex="1">
                    <mxGeometry x="50" y="160" width="130" height="30" as="geometry"/>
                </mxCell>
                <mxCell id="-fPaBRHo4Wx5OEPFAU4z-26" value="" style="endArrow=classic;html=1;dashed=1;" parent="1" source="-fPaBRHo4Wx5OEPFAU4z-7" target="-fPaBRHo4Wx5OEPFAU4z-14" edge="1">
                    <mxGeometry width="50" height="50" relative="1" as="geometry">
                        <mxPoint x="-30" y="320" as="sourcePoint"/>
                        <mxPoint x="-340" y="290" as="targetPoint"/>
                        <Array as="points">
                            <mxPoint x="-210" y="270"/>
                        </Array>
                    </mxGeometry>
                </mxCell>
                <mxCell id="-fPaBRHo4Wx5OEPFAU4z-27" value="链接建立完成" style="text;html=1;strokeColor=none;fillColor=none;align=center;verticalAlign=middle;whiteSpace=wrap;rounded=0;" parent="1" vertex="1">
                    <mxGeometry x="-400" y="270" width="90" height="30" as="geometry"/>
                </mxCell>
            </root>
        </mxGraphModel>
    </diagram>
    <diagram id="MBLGiJVqjJ7YH5IteMPV" name="UML">
        <mxGraphModel dx="2332" dy="924" grid="0" gridSize="10" guides="1" tooltips="1" connect="1" arrows="1" fold="1" page="0" pageScale="1" pageWidth="827" pageHeight="1169" background="none" math="0" shadow="0">
            <root>
                <mxCell id="0"/>
                <mxCell id="1" parent="0"/>
                <mxCell id="U5lcVpvxC29hos7KZ2_h-1" value="Buffer" style="swimlane;fontStyle=1;align=center;verticalAlign=top;childLayout=stackLayout;horizontal=1;startSize=26;horizontalStack=0;resizeParent=1;resizeParentMax=0;resizeLast=0;collapsible=1;marginBottom=0;" parent="1" vertex="1">
                    <mxGeometry x="-10" y="607" width="171" height="112" as="geometry"/>
                </mxCell>
                <mxCell id="IK1qUGEov7_-BCfXdFTV-25" value="- m_data：std::vector&lt;char&gt;" style="text;strokeColor=none;fillColor=none;align=left;verticalAlign=top;spacingLeft=4;spacingRight=4;overflow=hidden;rotatable=0;points=[[0,0.5],[1,0.5]];portConstraint=eastwest;fontStyle=0" parent="U5lcVpvxC29hos7KZ2_h-1" vertex="1">
                    <mxGeometry y="26" width="171" height="26" as="geometry"/>
                </mxCell>
                <mxCell id="IK1qUGEov7_-BCfXdFTV-26" value="- m_writeidx：size_t" style="text;strokeColor=none;fillColor=none;align=left;verticalAlign=top;spacingLeft=4;spacingRight=4;overflow=hidden;rotatable=0;points=[[0,0.5],[1,0.5]];portConstraint=eastwest;fontStyle=0" parent="U5lcVpvxC29hos7KZ2_h-1" vertex="1">
                    <mxGeometry y="52" width="171" height="26" as="geometry"/>
                </mxCell>
                <mxCell id="IK1qUGEov7_-BCfXdFTV-27" value="- m_readidx：size_t" style="text;strokeColor=none;fillColor=none;align=left;verticalAlign=top;spacingLeft=4;spacingRight=4;overflow=hidden;rotatable=0;points=[[0,0.5],[1,0.5]];portConstraint=eastwest;fontStyle=0" parent="U5lcVpvxC29hos7KZ2_h-1" vertex="1">
                    <mxGeometry y="78" width="171" height="26" as="geometry"/>
                </mxCell>
                <mxCell id="U5lcVpvxC29hos7KZ2_h-3" value="" style="line;strokeWidth=1;fillColor=none;align=left;verticalAlign=middle;spacingTop=-1;spacingLeft=3;spacingRight=3;rotatable=0;labelPosition=right;points=[];portConstraint=eastwest;strokeColor=inherit;" parent="U5lcVpvxC29hos7KZ2_h-1" vertex="1">
                    <mxGeometry y="104" width="171" height="8" as="geometry"/>
                </mxCell>
                <mxCell id="GEJJUc_A0SpWcczu4vo1-1" value="ConnOwner" style="swimlane;fontStyle=2;childLayout=stackLayout;horizontal=1;startSize=26;fillColor=none;horizontalStack=0;resizeParent=1;resizeParentMax=0;resizeLast=0;collapsible=1;marginBottom=0;" parent="1" vertex="1">
                    <mxGeometry x="597" y="894" width="190" height="182" as="geometry"/>
                </mxCell>
                <mxCell id="GEJJUc_A0SpWcczu4vo1-2" value="+ new_connection()：void" style="text;strokeColor=none;fillColor=none;align=left;verticalAlign=top;spacingLeft=4;spacingRight=4;overflow=hidden;rotatable=0;points=[[0,0.5],[1,0.5]];portConstraint=eastwest;fontStyle=2" parent="GEJJUc_A0SpWcczu4vo1-1" vertex="1">
                    <mxGeometry y="26" width="190" height="26" as="geometry"/>
                </mxCell>
                <mxCell id="GEJJUc_A0SpWcczu4vo1-3" value="+ del_connection()：void&#10;" style="text;strokeColor=none;fillColor=none;align=left;verticalAlign=top;spacingLeft=4;spacingRight=4;overflow=hidden;rotatable=0;points=[[0,0.5],[1,0.5]];portConstraint=eastwest;fontStyle=2" parent="GEJJUc_A0SpWcczu4vo1-1" vertex="1">
                    <mxGeometry y="52" width="190" height="26" as="geometry"/>
                </mxCell>
                <mxCell id="IK1qUGEov7_-BCfXdFTV-12" value="+ write_complete()：void" style="text;strokeColor=none;fillColor=none;align=left;verticalAlign=top;spacingLeft=4;spacingRight=4;overflow=hidden;rotatable=0;points=[[0,0.5],[1,0.5]];portConstraint=eastwest;fontStyle=2" parent="GEJJUc_A0SpWcczu4vo1-1" vertex="1">
                    <mxGeometry y="78" width="190" height="26" as="geometry"/>
                </mxCell>
                <mxCell id="IK1qUGEov7_-BCfXdFTV-13" value="+ recv_msg()：void " style="text;strokeColor=none;fillColor=none;align=left;verticalAlign=top;spacingLeft=4;spacingRight=4;overflow=hidden;rotatable=0;points=[[0,0.5],[1,0.5]];portConstraint=eastwest;" parent="GEJJUc_A0SpWcczu4vo1-1" vertex="1">
                    <mxGeometry y="104" width="190" height="26" as="geometry"/>
                </mxCell>
                <mxCell id="IK1qUGEov7_-BCfXdFTV-14" value="+ high_water_mark()：void " style="text;strokeColor=none;fillColor=none;align=left;verticalAlign=top;spacingLeft=4;spacingRight=4;overflow=hidden;rotatable=0;points=[[0,0.5],[1,0.5]];portConstraint=eastwest;fontStyle=2" parent="GEJJUc_A0SpWcczu4vo1-1" vertex="1">
                    <mxGeometry y="130" width="190" height="26" as="geometry"/>
                </mxCell>
                <mxCell id="IK1qUGEov7_-BCfXdFTV-15" value="+ get_loop()：event_loop* " style="text;strokeColor=none;fillColor=none;align=left;verticalAlign=top;spacingLeft=4;spacingRight=4;overflow=hidden;rotatable=0;points=[[0,0.5],[1,0.5]];portConstraint=eastwest;fontStyle=2" parent="GEJJUc_A0SpWcczu4vo1-1" vertex="1">
                    <mxGeometry y="156" width="190" height="26" as="geometry"/>
                </mxCell>
                <mxCell id="GEJJUc_A0SpWcczu4vo1-10" value="TcpServer" style="swimlane;fontStyle=1;align=center;verticalAlign=top;childLayout=stackLayout;horizontal=1;startSize=26;horizontalStack=0;resizeParent=1;resizeParentMax=0;resizeLast=0;collapsible=1;marginBottom=0;" parent="1" vertex="1">
                    <mxGeometry x="877" y="572" width="251" height="205" as="geometry"/>
                </mxCell>
                <mxCell id="GEJJUc_A0SpWcczu4vo1-11" value="- event_loop* main_loop_    //main中创建&#10;- acceptor* acceptor_" style="text;strokeColor=none;fillColor=none;align=left;verticalAlign=top;spacingLeft=4;spacingRight=4;overflow=hidden;rotatable=0;points=[[0,0.5],[1,0.5]];portConstraint=eastwest;" parent="GEJJUc_A0SpWcczu4vo1-10" vertex="1">
                    <mxGeometry y="26" width="251" height="39" as="geometry"/>
                </mxCell>
                <mxCell id="GEJJUc_A0SpWcczu4vo1-12" value="" style="line;strokeWidth=1;fillColor=none;align=left;verticalAlign=middle;spacingTop=-1;spacingLeft=3;spacingRight=3;rotatable=0;labelPosition=right;points=[];portConstraint=eastwest;" parent="GEJJUc_A0SpWcczu4vo1-10" vertex="1">
                    <mxGeometry y="65" width="251" height="8" as="geometry"/>
                </mxCell>
                <mxCell id="IK1qUGEov7_-BCfXdFTV-19" value="+ start()：void" style="text;strokeColor=none;fillColor=none;align=left;verticalAlign=top;spacingLeft=4;spacingRight=4;overflow=hidden;rotatable=0;points=[[0,0.5],[1,0.5]];portConstraint=eastwest;fontStyle=0" parent="GEJJUc_A0SpWcczu4vo1-10" vertex="1">
                    <mxGeometry y="73" width="251" height="26" as="geometry"/>
                </mxCell>
                <mxCell id="IK1qUGEov7_-BCfXdFTV-18" value="+ set_write_complete()：void" style="text;strokeColor=none;fillColor=none;align=left;verticalAlign=top;spacingLeft=4;spacingRight=4;overflow=hidden;rotatable=0;points=[[0,0.5],[1,0.5]];portConstraint=eastwest;fontStyle=0" parent="GEJJUc_A0SpWcczu4vo1-10" vertex="1">
                    <mxGeometry y="99" width="251" height="26" as="geometry"/>
                </mxCell>
                <mxCell id="IK1qUGEov7_-BCfXdFTV-20" value="+ set_del_connection()：void" style="text;strokeColor=none;fillColor=none;align=left;verticalAlign=top;spacingLeft=4;spacingRight=4;overflow=hidden;rotatable=0;points=[[0,0.5],[1,0.5]];portConstraint=eastwest;fontStyle=0" parent="GEJJUc_A0SpWcczu4vo1-10" vertex="1">
                    <mxGeometry y="125" width="251" height="26" as="geometry"/>
                </mxCell>
                <mxCell id="IK1qUGEov7_-BCfXdFTV-21" value="&lt;span style=&quot;&quot;&gt;&amp;nbsp;+ set_recv_msg_cb()：void&lt;/span&gt;" style="text;whiteSpace=wrap;html=1;" parent="GEJJUc_A0SpWcczu4vo1-10" vertex="1">
                    <mxGeometry y="151" width="251" height="27" as="geometry"/>
                </mxCell>
                <mxCell id="IK1qUGEov7_-BCfXdFTV-22" value="&lt;span style=&quot;&quot;&gt;&amp;nbsp;+ set_new_connection_cb()：void&lt;/span&gt;" style="text;whiteSpace=wrap;html=1;" parent="GEJJUc_A0SpWcczu4vo1-10" vertex="1">
                    <mxGeometry y="178" width="251" height="27" as="geometry"/>
                </mxCell>
                <mxCell id="GEJJUc_A0SpWcczu4vo1-15" value="TcpConn" style="swimlane;fontStyle=1;align=center;verticalAlign=top;childLayout=stackLayout;horizontal=1;startSize=26;horizontalStack=0;resizeParent=1;resizeParentMax=0;resizeLast=0;collapsible=1;marginBottom=0;" parent="1" vertex="1">
                    <mxGeometry x="101" y="358" width="456" height="87" as="geometry"/>
                </mxCell>
                <mxCell id="GEJJUc_A0SpWcczu4vo1-16" value="- m_owner：ConnOwner*  //属于哪个tcp_server或者tcp_client&#10;- m_recv_buf_：Buffer*     //接收对端数据的buf&#10;- m_send_buf_：Buffer*   //发送给对端数据的buf" style="text;strokeColor=none;fillColor=none;align=left;verticalAlign=top;spacingLeft=4;spacingRight=4;overflow=hidden;rotatable=0;points=[[0,0.5],[1,0.5]];portConstraint=eastwest;" parent="GEJJUc_A0SpWcczu4vo1-15" vertex="1">
                    <mxGeometry y="26" width="456" height="53" as="geometry"/>
                </mxCell>
                <mxCell id="GEJJUc_A0SpWcczu4vo1-17" value="" style="line;strokeWidth=1;fillColor=none;align=left;verticalAlign=middle;spacingTop=-1;spacingLeft=3;spacingRight=3;rotatable=0;labelPosition=right;points=[];portConstraint=eastwest;" parent="GEJJUc_A0SpWcczu4vo1-15" vertex="1">
                    <mxGeometry y="79" width="456" height="8" as="geometry"/>
                </mxCell>
                <mxCell id="GEJJUc_A0SpWcczu4vo1-21" value="IOEvent" style="swimlane;fontStyle=3;align=center;verticalAlign=top;childLayout=stackLayout;horizontal=1;startSize=26;horizontalStack=0;resizeParent=1;resizeParentMax=0;resizeLast=0;collapsible=1;marginBottom=0;" parent="1" vertex="1">
                    <mxGeometry x="682" y="13" width="203" height="157" as="geometry"/>
                </mxCell>
                <mxCell id="GEJJUc_A0SpWcczu4vo1-22" value="# m_owner_loop：EventLoop* &#10;# m_fd：int&#10;# m_expect_events：int &#10;# m_actul_events：int " style="text;strokeColor=none;fillColor=none;align=left;verticalAlign=top;spacingLeft=4;spacingRight=4;overflow=hidden;rotatable=0;points=[[0,0.5],[1,0.5]];portConstraint=eastwest;" parent="GEJJUc_A0SpWcczu4vo1-21" vertex="1">
                    <mxGeometry y="26" width="203" height="65" as="geometry"/>
                </mxCell>
                <mxCell id="GEJJUc_A0SpWcczu4vo1-23" value="" style="line;strokeWidth=1;fillColor=none;align=left;verticalAlign=middle;spacingTop=-1;spacingLeft=3;spacingRight=3;rotatable=0;labelPosition=right;points=[];portConstraint=eastwest;" parent="GEJJUc_A0SpWcczu4vo1-21" vertex="1">
                    <mxGeometry y="91" width="203" height="8" as="geometry"/>
                </mxCell>
                <mxCell id="GEJJUc_A0SpWcczu4vo1-24" value="+ ProcessReadEvent：void" style="text;strokeColor=none;fillColor=none;align=left;verticalAlign=top;spacingLeft=4;spacingRight=4;overflow=hidden;rotatable=0;points=[[0,0.5],[1,0.5]];portConstraint=eastwest;fontStyle=2" parent="GEJJUc_A0SpWcczu4vo1-21" vertex="1">
                    <mxGeometry y="99" width="203" height="29" as="geometry"/>
                </mxCell>
                <mxCell id="6Hdcv3TD7BjIHc9NbFGQ-5" value="+ ProcessWriteEvent：void" style="text;strokeColor=none;fillColor=none;align=left;verticalAlign=top;spacingLeft=4;spacingRight=4;overflow=hidden;rotatable=0;points=[[0,0.5],[1,0.5]];portConstraint=eastwest;fontStyle=2" parent="GEJJUc_A0SpWcczu4vo1-21" vertex="1">
                    <mxGeometry y="128" width="203" height="29" as="geometry"/>
                </mxCell>
                <mxCell id="GEJJUc_A0SpWcczu4vo1-29" value="Poller" style="swimlane;fontStyle=3;align=center;verticalAlign=top;childLayout=stackLayout;horizontal=1;startSize=26;horizontalStack=0;resizeParent=1;resizeParentMax=0;resizeLast=0;collapsible=1;marginBottom=0;" parent="1" vertex="1">
                    <mxGeometry x="1453" y="358" width="328" height="176" as="geometry"/>
                </mxCell>
                <mxCell id="GEJJUc_A0SpWcczu4vo1-30" value="- owner_loop_：EventLoop* " style="text;strokeColor=none;fillColor=none;align=left;verticalAlign=top;spacingLeft=4;spacingRight=4;overflow=hidden;rotatable=0;points=[[0,0.5],[1,0.5]];portConstraint=eastwest;" parent="GEJJUc_A0SpWcczu4vo1-29" vertex="1">
                    <mxGeometry y="26" width="328" height="29" as="geometry"/>
                </mxCell>
                <mxCell id="GEJJUc_A0SpWcczu4vo1-31" value="" style="line;strokeWidth=1;fillColor=none;align=left;verticalAlign=middle;spacingTop=-1;spacingLeft=3;spacingRight=3;rotatable=0;labelPosition=right;points=[];portConstraint=eastwest;" parent="GEJJUc_A0SpWcczu4vo1-29" vertex="1">
                    <mxGeometry y="55" width="328" height="8" as="geometry"/>
                </mxCell>
                <mxCell id="GEJJUc_A0SpWcczu4vo1-32" value="+ poller(event_loop* loop)&#10;" style="text;strokeColor=none;fillColor=none;align=left;verticalAlign=top;spacingLeft=4;spacingRight=4;overflow=hidden;rotatable=0;points=[[0,0.5],[1,0.5]];portConstraint=eastwest;" parent="GEJJUc_A0SpWcczu4vo1-29" vertex="1">
                    <mxGeometry y="63" width="328" height="27" as="geometry"/>
                </mxCell>
                <mxCell id="IK1qUGEov7_-BCfXdFTV-17" value="+ ~poller()&#10;+ polling(int timeout_ms, active_events_t &amp;events)：void&#10;+ add_fd_event()：void&#10;+ del_fd_event()：void&#10;+ mod_fd_event()：void" style="text;strokeColor=none;fillColor=none;align=left;verticalAlign=top;spacingLeft=4;spacingRight=4;overflow=hidden;rotatable=0;points=[[0,0.5],[1,0.5]];portConstraint=eastwest;fontStyle=2" parent="GEJJUc_A0SpWcczu4vo1-29" vertex="1">
                    <mxGeometry y="90" width="328" height="86" as="geometry"/>
                </mxCell>
                <mxCell id="GEJJUc_A0SpWcczu4vo1-33" value="epoll_poller" style="swimlane;fontStyle=1;align=center;verticalAlign=top;childLayout=stackLayout;horizontal=1;startSize=26;horizontalStack=0;resizeParent=1;resizeParentMax=0;resizeLast=0;collapsible=1;marginBottom=0;" parent="1" vertex="1">
                    <mxGeometry x="1904" y="486" width="160" height="86" as="geometry"/>
                </mxCell>
                <mxCell id="GEJJUc_A0SpWcczu4vo1-34" value="- int epollfd_" style="text;strokeColor=none;fillColor=none;align=left;verticalAlign=top;spacingLeft=4;spacingRight=4;overflow=hidden;rotatable=0;points=[[0,0.5],[1,0.5]];portConstraint=eastwest;" parent="GEJJUc_A0SpWcczu4vo1-33" vertex="1">
                    <mxGeometry y="26" width="160" height="26" as="geometry"/>
                </mxCell>
                <mxCell id="GEJJUc_A0SpWcczu4vo1-35" value="" style="line;strokeWidth=1;fillColor=none;align=left;verticalAlign=middle;spacingTop=-1;spacingLeft=3;spacingRight=3;rotatable=0;labelPosition=right;points=[];portConstraint=eastwest;" parent="GEJJUc_A0SpWcczu4vo1-33" vertex="1">
                    <mxGeometry y="52" width="160" height="8" as="geometry"/>
                </mxCell>
                <mxCell id="GEJJUc_A0SpWcczu4vo1-36" value="+ method(type): type" style="text;strokeColor=none;fillColor=none;align=left;verticalAlign=top;spacingLeft=4;spacingRight=4;overflow=hidden;rotatable=0;points=[[0,0.5],[1,0.5]];portConstraint=eastwest;" parent="GEJJUc_A0SpWcczu4vo1-33" vertex="1">
                    <mxGeometry y="60" width="160" height="26" as="geometry"/>
                </mxCell>
                <mxCell id="GEJJUc_A0SpWcczu4vo1-37" value="poll_poller" style="swimlane;fontStyle=1;align=center;verticalAlign=top;childLayout=stackLayout;horizontal=1;startSize=26;horizontalStack=0;resizeParent=1;resizeParentMax=0;resizeLast=0;collapsible=1;marginBottom=0;" parent="1" vertex="1">
                    <mxGeometry x="1904" y="358" width="206" height="86" as="geometry"/>
                </mxCell>
                <mxCell id="GEJJUc_A0SpWcczu4vo1-38" value="- std::vector&lt;struct pollfd&gt; pollfds_" style="text;strokeColor=none;fillColor=none;align=left;verticalAlign=top;spacingLeft=4;spacingRight=4;overflow=hidden;rotatable=0;points=[[0,0.5],[1,0.5]];portConstraint=eastwest;" parent="GEJJUc_A0SpWcczu4vo1-37" vertex="1">
                    <mxGeometry y="26" width="206" height="26" as="geometry"/>
                </mxCell>
                <mxCell id="GEJJUc_A0SpWcczu4vo1-39" value="" style="line;strokeWidth=1;fillColor=none;align=left;verticalAlign=middle;spacingTop=-1;spacingLeft=3;spacingRight=3;rotatable=0;labelPosition=right;points=[];portConstraint=eastwest;" parent="GEJJUc_A0SpWcczu4vo1-37" vertex="1">
                    <mxGeometry y="52" width="206" height="8" as="geometry"/>
                </mxCell>
                <mxCell id="GEJJUc_A0SpWcczu4vo1-40" value="+ method(type): type" style="text;strokeColor=none;fillColor=none;align=left;verticalAlign=top;spacingLeft=4;spacingRight=4;overflow=hidden;rotatable=0;points=[[0,0.5],[1,0.5]];portConstraint=eastwest;" parent="GEJJUc_A0SpWcczu4vo1-37" vertex="1">
                    <mxGeometry y="60" width="206" height="26" as="geometry"/>
                </mxCell>
                <mxCell id="GEJJUc_A0SpWcczu4vo1-43" value="Extends" style="endArrow=block;endSize=16;endFill=0;html=1;exitX=0.75;exitY=0;exitDx=0;exitDy=0;" parent="1" source="GEJJUc_A0SpWcczu4vo1-15" target="GEJJUc_A0SpWcczu4vo1-21" edge="1">
                    <mxGeometry width="160" relative="1" as="geometry">
                        <mxPoint x="907" y="100" as="sourcePoint"/>
                        <mxPoint x="928" y="110" as="targetPoint"/>
                    </mxGeometry>
                </mxCell>
                <mxCell id="GEJJUc_A0SpWcczu4vo1-44" value="EventLoop" style="swimlane;fontStyle=1;align=center;verticalAlign=top;childLayout=stackLayout;horizontal=1;startSize=26;horizontalStack=0;resizeParent=1;resizeParentMax=0;resizeLast=0;collapsible=1;marginBottom=0;" parent="1" vertex="1">
                    <mxGeometry x="1501.5" y="672" width="231" height="180" as="geometry"/>
                </mxCell>
                <mxCell id="IK1qUGEov7_-BCfXdFTV-23" value="- poller_：poller*" style="text;strokeColor=none;fillColor=none;align=left;verticalAlign=top;spacingLeft=4;spacingRight=4;overflow=hidden;rotatable=0;points=[[0,0.5],[1,0.5]];portConstraint=eastwest;" parent="GEJJUc_A0SpWcczu4vo1-44" vertex="1">
                    <mxGeometry y="26" width="231" height="26" as="geometry"/>
                </mxCell>
                <mxCell id="GEJJUc_A0SpWcczu4vo1-45" value="- ready_events：poller::active_events_t" style="text;strokeColor=none;fillColor=none;align=left;verticalAlign=top;spacingLeft=4;spacingRight=4;overflow=hidden;rotatable=0;points=[[0,0.5],[1,0.5]];portConstraint=eastwest;" parent="GEJJUc_A0SpWcczu4vo1-44" vertex="1">
                    <mxGeometry y="52" width="231" height="26" as="geometry"/>
                </mxCell>
                <mxCell id="GEJJUc_A0SpWcczu4vo1-46" value="" style="line;strokeWidth=1;fillColor=none;align=left;verticalAlign=middle;spacingTop=-1;spacingLeft=3;spacingRight=3;rotatable=0;labelPosition=right;points=[];portConstraint=eastwest;" parent="GEJJUc_A0SpWcczu4vo1-44" vertex="1">
                    <mxGeometry y="78" width="231" height="8" as="geometry"/>
                </mxCell>
                <mxCell id="GEJJUc_A0SpWcczu4vo1-47" value="+ loop()：viod{&#10;    poller-&gt;loop();&#10;    for(){&#10;        handle_event();&#10;    }&#10;}" style="text;strokeColor=none;fillColor=none;align=left;verticalAlign=top;spacingLeft=4;spacingRight=4;overflow=hidden;rotatable=0;points=[[0,0.5],[1,0.5]];portConstraint=eastwest;" parent="GEJJUc_A0SpWcczu4vo1-44" vertex="1">
                    <mxGeometry y="86" width="231" height="94" as="geometry"/>
                </mxCell>
                <mxCell id="GEJJUc_A0SpWcczu4vo1-48" value="Accetpor" style="swimlane;fontStyle=1;align=center;verticalAlign=top;childLayout=stackLayout;horizontal=1;startSize=26;horizontalStack=0;resizeParent=1;resizeParentMax=0;resizeLast=0;collapsible=1;marginBottom=0;" parent="1" vertex="1">
                    <mxGeometry x="877" y="358" width="241" height="138" as="geometry"/>
                </mxCell>
                <mxCell id="GEJJUc_A0SpWcczu4vo1-49" value="- TcpServer* m_server" style="text;strokeColor=none;fillColor=none;align=left;verticalAlign=top;spacingLeft=4;spacingRight=4;overflow=hidden;rotatable=0;points=[[0,0.5],[1,0.5]];portConstraint=eastwest;" parent="GEJJUc_A0SpWcczu4vo1-48" vertex="1">
                    <mxGeometry y="26" width="241" height="26" as="geometry"/>
                </mxCell>
                <mxCell id="GEJJUc_A0SpWcczu4vo1-50" value="" style="line;strokeWidth=1;fillColor=none;align=left;verticalAlign=middle;spacingTop=-1;spacingLeft=3;spacingRight=3;rotatable=0;labelPosition=right;points=[];portConstraint=eastwest;" parent="GEJJUc_A0SpWcczu4vo1-48" vertex="1">
                    <mxGeometry y="52" width="241" height="8" as="geometry"/>
                </mxCell>
                <mxCell id="IK1qUGEov7_-BCfXdFTV-33" value="+ Accetpor(tcp_server* server, int fd)" style="text;strokeColor=none;fillColor=none;align=left;verticalAlign=top;spacingLeft=4;spacingRight=4;overflow=hidden;rotatable=0;points=[[0,0.5],[1,0.5]];portConstraint=eastwest;fontStyle=0" parent="GEJJUc_A0SpWcczu4vo1-48" vertex="1">
                    <mxGeometry y="60" width="241" height="26" as="geometry"/>
                </mxCell>
                <mxCell id="IK1qUGEov7_-BCfXdFTV-34" value="+ start_listen：void" style="text;strokeColor=none;fillColor=none;align=left;verticalAlign=top;spacingLeft=4;spacingRight=4;overflow=hidden;rotatable=0;points=[[0,0.5],[1,0.5]];portConstraint=eastwest;fontStyle=0" parent="GEJJUc_A0SpWcczu4vo1-48" vertex="1">
                    <mxGeometry y="86" width="241" height="26" as="geometry"/>
                </mxCell>
                <mxCell id="IK1qUGEov7_-BCfXdFTV-32" value="+ handle_read()：void" style="text;strokeColor=none;fillColor=none;align=left;verticalAlign=top;spacingLeft=4;spacingRight=4;overflow=hidden;rotatable=0;points=[[0,0.5],[1,0.5]];portConstraint=eastwest;fontStyle=2" parent="GEJJUc_A0SpWcczu4vo1-48" vertex="1">
                    <mxGeometry y="112" width="241" height="26" as="geometry"/>
                </mxCell>
                <mxCell id="GEJJUc_A0SpWcczu4vo1-56" value="Extends" style="endArrow=block;endSize=16;endFill=0;html=1;exitX=0.5;exitY=0;exitDx=0;exitDy=0;" parent="1" source="GEJJUc_A0SpWcczu4vo1-48" target="GEJJUc_A0SpWcczu4vo1-21" edge="1">
                    <mxGeometry width="160" relative="1" as="geometry">
                        <mxPoint x="670" y="350" as="sourcePoint"/>
                        <mxPoint x="887" y="388" as="targetPoint"/>
                    </mxGeometry>
                </mxCell>
                <mxCell id="IK1qUGEov7_-BCfXdFTV-6" value="" style="endArrow=block;dashed=1;endFill=0;endSize=12;html=1;" parent="1" source="GEJJUc_A0SpWcczu4vo1-33" target="GEJJUc_A0SpWcczu4vo1-29" edge="1">
                    <mxGeometry width="160" relative="1" as="geometry">
                        <mxPoint x="1209" y="511.5" as="sourcePoint"/>
                        <mxPoint x="1369" y="511.5" as="targetPoint"/>
                    </mxGeometry>
                </mxCell>
                <mxCell id="IK1qUGEov7_-BCfXdFTV-7" value="" style="endArrow=block;dashed=1;endFill=0;endSize=12;html=1;" parent="1" source="GEJJUc_A0SpWcczu4vo1-37" target="GEJJUc_A0SpWcczu4vo1-29" edge="1">
                    <mxGeometry width="160" relative="1" as="geometry">
                        <mxPoint x="1209" y="511.5" as="sourcePoint"/>
                        <mxPoint x="1369" y="511.5" as="targetPoint"/>
                    </mxGeometry>
                </mxCell>
                <mxCell id="pspxHrgMz8er8LNHYIxH-1" value="Use" style="endArrow=open;endSize=12;dashed=1;html=1;exitX=1;exitY=0.5;exitDx=0;exitDy=0;edgeStyle=orthogonalEdgeStyle;" parent="1" source="GEJJUc_A0SpWcczu4vo1-34" target="GEJJUc_A0SpWcczu4vo1-21" edge="1">
                    <mxGeometry width="160" relative="1" as="geometry">
                        <mxPoint x="2106" y="519" as="sourcePoint"/>
                        <mxPoint x="1368" y="128" as="targetPoint"/>
                        <Array as="points">
                            <mxPoint x="2171" y="525"/>
                            <mxPoint x="2171" y="110"/>
                        </Array>
                    </mxGeometry>
                </mxCell>
                <mxCell id="pspxHrgMz8er8LNHYIxH-2" value="Use" style="endArrow=open;endSize=12;dashed=1;html=1;edgeStyle=orthogonalEdgeStyle;" parent="1" source="GEJJUc_A0SpWcczu4vo1-37" target="GEJJUc_A0SpWcczu4vo1-21" edge="1">
                    <mxGeometry width="160" relative="1" as="geometry">
                        <mxPoint x="1115" y="544" as="sourcePoint"/>
                        <mxPoint x="1275" y="544" as="targetPoint"/>
                        <Array as="points">
                            <mxPoint x="2007" y="131"/>
                        </Array>
                    </mxGeometry>
                </mxCell>
                <mxCell id="KmARwg-vXdPTK49hy1t7-8" value="" style="endArrow=diamondThin;endFill=1;endSize=24;html=1;" parent="1" source="GEJJUc_A0SpWcczu4vo1-44" target="GEJJUc_A0SpWcczu4vo1-29" edge="1">
                    <mxGeometry width="160" relative="1" as="geometry">
                        <mxPoint x="1299.0000000000005" y="909" as="sourcePoint"/>
                        <mxPoint x="1299.0000000000005" y="551" as="targetPoint"/>
                    </mxGeometry>
                </mxCell>
                <mxCell id="kP1iAUKmejxGbXAozvne-2" value="" style="endArrow=diamondThin;endFill=1;endSize=24;html=1;exitX=0.5;exitY=0;exitDx=0;exitDy=0;" parent="1" source="U5lcVpvxC29hos7KZ2_h-1" target="GEJJUc_A0SpWcczu4vo1-15" edge="1">
                    <mxGeometry width="160" relative="1" as="geometry">
                        <mxPoint x="406" y="595" as="sourcePoint"/>
                        <mxPoint x="976" y="473" as="targetPoint"/>
                    </mxGeometry>
                </mxCell>
                <mxCell id="6Hdcv3TD7BjIHc9NbFGQ-6" value="" style="endArrow=diamondThin;endFill=1;endSize=24;html=1;" parent="1" source="GEJJUc_A0SpWcczu4vo1-10" target="GEJJUc_A0SpWcczu4vo1-44" edge="1">
                    <mxGeometry width="160" relative="1" as="geometry">
                        <mxPoint x="1227" y="735" as="sourcePoint"/>
                        <mxPoint x="1387" y="735" as="targetPoint"/>
                    </mxGeometry>
                </mxCell>
                <mxCell id="6Hdcv3TD7BjIHc9NbFGQ-7" value="" style="endArrow=diamondThin;endFill=1;endSize=24;html=1;" parent="1" source="GEJJUc_A0SpWcczu4vo1-44" target="GEJJUc_A0SpWcczu4vo1-21" edge="1">
                    <mxGeometry width="160" relative="1" as="geometry">
                        <mxPoint x="1308" y="429" as="sourcePoint"/>
                        <mxPoint x="1397.037113402062" y="230" as="targetPoint"/>
                    </mxGeometry>
                </mxCell>
                <mxCell id="6Hdcv3TD7BjIHc9NbFGQ-8" value="Extends" style="endArrow=block;endSize=16;endFill=0;html=1;" parent="1" source="GEJJUc_A0SpWcczu4vo1-10" target="GEJJUc_A0SpWcczu4vo1-1" edge="1">
                    <mxGeometry width="160" relative="1" as="geometry">
                        <mxPoint x="940.61" y="1025" as="sourcePoint"/>
                        <mxPoint x="784.002120075047" y="837" as="targetPoint"/>
                    </mxGeometry>
                </mxCell>
                <mxCell id="6Hdcv3TD7BjIHc9NbFGQ-9" value="" style="endArrow=diamondThin;endFill=1;endSize=24;html=1;" parent="1" source="GEJJUc_A0SpWcczu4vo1-10" target="GEJJUc_A0SpWcczu4vo1-48" edge="1">
                    <mxGeometry width="160" relative="1" as="geometry">
                        <mxPoint x="1144" y="771" as="sourcePoint"/>
                        <mxPoint x="1233.037113402062" y="572" as="targetPoint"/>
                    </mxGeometry>
                </mxCell>
                <mxCell id="6Hdcv3TD7BjIHc9NbFGQ-10" value="" style="endArrow=diamondThin;endFill=1;endSize=24;html=1;" parent="1" source="GEJJUc_A0SpWcczu4vo1-1" target="GEJJUc_A0SpWcczu4vo1-15" edge="1">
                    <mxGeometry width="160" relative="1" as="geometry">
                        <mxPoint x="539" y="807" as="sourcePoint"/>
                        <mxPoint x="628.037113402062" y="608" as="targetPoint"/>
                    </mxGeometry>
                </mxCell>
                <mxCell id="NU-j03Kp-_xWDph2pbmN-1" value="Notify" style="swimlane;fontStyle=1;align=center;verticalAlign=top;childLayout=stackLayout;horizontal=1;startSize=26;horizontalStack=0;resizeParent=1;resizeParentMax=0;resizeLast=0;collapsible=1;marginBottom=0;" parent="1" vertex="1">
                    <mxGeometry x="-174" y="358" width="241" height="60" as="geometry"/>
                </mxCell>
                <mxCell id="NU-j03Kp-_xWDph2pbmN-3" value="" style="line;strokeWidth=1;fillColor=none;align=left;verticalAlign=middle;spacingTop=-1;spacingLeft=3;spacingRight=3;rotatable=0;labelPosition=right;points=[];portConstraint=eastwest;" parent="NU-j03Kp-_xWDph2pbmN-1" vertex="1">
                    <mxGeometry y="26" width="241" height="8" as="geometry"/>
                </mxCell>
                <mxCell id="NU-j03Kp-_xWDph2pbmN-4" value="+ WakeUp：void" style="text;strokeColor=none;fillColor=none;align=left;verticalAlign=top;spacingLeft=4;spacingRight=4;overflow=hidden;rotatable=0;points=[[0,0.5],[1,0.5]];portConstraint=eastwest;fontStyle=0" parent="NU-j03Kp-_xWDph2pbmN-1" vertex="1">
                    <mxGeometry y="34" width="241" height="26" as="geometry"/>
                </mxCell>
                <mxCell id="NU-j03Kp-_xWDph2pbmN-7" value="Extends" style="endArrow=block;endSize=16;endFill=0;html=1;" parent="1" source="NU-j03Kp-_xWDph2pbmN-1" target="GEJJUc_A0SpWcczu4vo1-21" edge="1">
                    <mxGeometry width="160" relative="1" as="geometry">
                        <mxPoint x="207" y="390" as="sourcePoint"/>
                        <mxPoint x="367" y="390" as="targetPoint"/>
                    </mxGeometry>
                </mxCell>
                <mxCell id="Kaf4RbQWDvxC0vOU2Sz1-1" value="TcpClient" style="swimlane;fontStyle=1;align=center;verticalAlign=top;childLayout=stackLayout;horizontal=1;startSize=26;horizontalStack=0;resizeParent=1;resizeParentMax=0;resizeLast=0;collapsible=1;marginBottom=0;" parent="1" vertex="1">
                    <mxGeometry x="595" y="572" width="251" height="205" as="geometry"/>
                </mxCell>
                <mxCell id="Kaf4RbQWDvxC0vOU2Sz1-2" value="- event_loop* main_loop_    //main中创建&#10;- acceptor* acceptor_" style="text;strokeColor=none;fillColor=none;align=left;verticalAlign=top;spacingLeft=4;spacingRight=4;overflow=hidden;rotatable=0;points=[[0,0.5],[1,0.5]];portConstraint=eastwest;" parent="Kaf4RbQWDvxC0vOU2Sz1-1" vertex="1">
                    <mxGeometry y="26" width="251" height="39" as="geometry"/>
                </mxCell>
                <mxCell id="Kaf4RbQWDvxC0vOU2Sz1-3" value="" style="line;strokeWidth=1;fillColor=none;align=left;verticalAlign=middle;spacingTop=-1;spacingLeft=3;spacingRight=3;rotatable=0;labelPosition=right;points=[];portConstraint=eastwest;" parent="Kaf4RbQWDvxC0vOU2Sz1-1" vertex="1">
                    <mxGeometry y="65" width="251" height="8" as="geometry"/>
                </mxCell>
                <mxCell id="Kaf4RbQWDvxC0vOU2Sz1-4" value="+ start()：void" style="text;strokeColor=none;fillColor=none;align=left;verticalAlign=top;spacingLeft=4;spacingRight=4;overflow=hidden;rotatable=0;points=[[0,0.5],[1,0.5]];portConstraint=eastwest;fontStyle=0" parent="Kaf4RbQWDvxC0vOU2Sz1-1" vertex="1">
                    <mxGeometry y="73" width="251" height="26" as="geometry"/>
                </mxCell>
                <mxCell id="Kaf4RbQWDvxC0vOU2Sz1-5" value="+ set_write_complete()：void" style="text;strokeColor=none;fillColor=none;align=left;verticalAlign=top;spacingLeft=4;spacingRight=4;overflow=hidden;rotatable=0;points=[[0,0.5],[1,0.5]];portConstraint=eastwest;fontStyle=0" parent="Kaf4RbQWDvxC0vOU2Sz1-1" vertex="1">
                    <mxGeometry y="99" width="251" height="26" as="geometry"/>
                </mxCell>
                <mxCell id="Kaf4RbQWDvxC0vOU2Sz1-6" value="+ set_del_connection()：void" style="text;strokeColor=none;fillColor=none;align=left;verticalAlign=top;spacingLeft=4;spacingRight=4;overflow=hidden;rotatable=0;points=[[0,0.5],[1,0.5]];portConstraint=eastwest;fontStyle=0" parent="Kaf4RbQWDvxC0vOU2Sz1-1" vertex="1">
                    <mxGeometry y="125" width="251" height="26" as="geometry"/>
                </mxCell>
                <mxCell id="Kaf4RbQWDvxC0vOU2Sz1-7" value="&lt;span style=&quot;&quot;&gt;&amp;nbsp;+ set_recv_msg_cb()：void&lt;/span&gt;" style="text;whiteSpace=wrap;html=1;" parent="Kaf4RbQWDvxC0vOU2Sz1-1" vertex="1">
                    <mxGeometry y="151" width="251" height="27" as="geometry"/>
                </mxCell>
                <mxCell id="Kaf4RbQWDvxC0vOU2Sz1-8" value="&lt;span style=&quot;&quot;&gt;&amp;nbsp;+ set_new_connection_cb()：void&lt;/span&gt;" style="text;whiteSpace=wrap;html=1;" parent="Kaf4RbQWDvxC0vOU2Sz1-1" vertex="1">
                    <mxGeometry y="178" width="251" height="27" as="geometry"/>
                </mxCell>
                <mxCell id="Kaf4RbQWDvxC0vOU2Sz1-9" value="Extends" style="endArrow=block;endSize=16;endFill=0;html=1;" parent="1" source="Kaf4RbQWDvxC0vOU2Sz1-1" target="GEJJUc_A0SpWcczu4vo1-1" edge="1">
                    <mxGeometry width="160" relative="1" as="geometry">
                        <mxPoint x="909" y="520" as="sourcePoint"/>
                        <mxPoint x="1069" y="520" as="targetPoint"/>
                    </mxGeometry>
                </mxCell>
                <mxCell id="Kaf4RbQWDvxC0vOU2Sz1-10" value="Connector" style="swimlane;fontStyle=1;align=center;verticalAlign=top;childLayout=stackLayout;horizontal=1;startSize=26;horizontalStack=0;resizeParent=1;resizeParentMax=0;resizeLast=0;collapsible=1;marginBottom=0;" parent="1" vertex="1">
                    <mxGeometry x="600" y="358" width="241" height="138" as="geometry"/>
                </mxCell>
                <mxCell id="Kaf4RbQWDvxC0vOU2Sz1-11" value="- TcpClient* m_client" style="text;strokeColor=none;fillColor=none;align=left;verticalAlign=top;spacingLeft=4;spacingRight=4;overflow=hidden;rotatable=0;points=[[0,0.5],[1,0.5]];portConstraint=eastwest;" parent="Kaf4RbQWDvxC0vOU2Sz1-10" vertex="1">
                    <mxGeometry y="26" width="241" height="26" as="geometry"/>
                </mxCell>
                <mxCell id="Kaf4RbQWDvxC0vOU2Sz1-12" value="" style="line;strokeWidth=1;fillColor=none;align=left;verticalAlign=middle;spacingTop=-1;spacingLeft=3;spacingRight=3;rotatable=0;labelPosition=right;points=[];portConstraint=eastwest;" parent="Kaf4RbQWDvxC0vOU2Sz1-10" vertex="1">
                    <mxGeometry y="52" width="241" height="8" as="geometry"/>
                </mxCell>
                <mxCell id="Kaf4RbQWDvxC0vOU2Sz1-13" value="+ Connector(tcp_server* server, int fd)" style="text;strokeColor=none;fillColor=none;align=left;verticalAlign=top;spacingLeft=4;spacingRight=4;overflow=hidden;rotatable=0;points=[[0,0.5],[1,0.5]];portConstraint=eastwest;fontStyle=0" parent="Kaf4RbQWDvxC0vOU2Sz1-10" vertex="1">
                    <mxGeometry y="60" width="241" height="26" as="geometry"/>
                </mxCell>
                <mxCell id="Kaf4RbQWDvxC0vOU2Sz1-14" value="+ start_listen：void" style="text;strokeColor=none;fillColor=none;align=left;verticalAlign=top;spacingLeft=4;spacingRight=4;overflow=hidden;rotatable=0;points=[[0,0.5],[1,0.5]];portConstraint=eastwest;fontStyle=0" parent="Kaf4RbQWDvxC0vOU2Sz1-10" vertex="1">
                    <mxGeometry y="86" width="241" height="26" as="geometry"/>
                </mxCell>
                <mxCell id="Kaf4RbQWDvxC0vOU2Sz1-15" value="+ handle_read()：void" style="text;strokeColor=none;fillColor=none;align=left;verticalAlign=top;spacingLeft=4;spacingRight=4;overflow=hidden;rotatable=0;points=[[0,0.5],[1,0.5]];portConstraint=eastwest;fontStyle=2" parent="Kaf4RbQWDvxC0vOU2Sz1-10" vertex="1">
                    <mxGeometry y="112" width="241" height="26" as="geometry"/>
                </mxCell>
                <mxCell id="Kaf4RbQWDvxC0vOU2Sz1-17" value="Extends" style="endArrow=block;endSize=16;endFill=0;html=1;" parent="1" source="Kaf4RbQWDvxC0vOU2Sz1-10" target="GEJJUc_A0SpWcczu4vo1-21" edge="1">
                    <mxGeometry width="160" relative="1" as="geometry">
                        <mxPoint x="909" y="520" as="sourcePoint"/>
                        <mxPoint x="1069" y="520" as="targetPoint"/>
                    </mxGeometry>
                </mxCell>
                <mxCell id="Kaf4RbQWDvxC0vOU2Sz1-18" value="" style="endArrow=diamondThin;endFill=1;endSize=24;html=1;exitX=0.5;exitY=0;exitDx=0;exitDy=0;" parent="1" source="Kaf4RbQWDvxC0vOU2Sz1-1" target="Kaf4RbQWDvxC0vOU2Sz1-10" edge="1">
                    <mxGeometry width="160" relative="1" as="geometry">
                        <mxPoint x="909" y="520" as="sourcePoint"/>
                        <mxPoint x="1069" y="520" as="targetPoint"/>
                    </mxGeometry>
                </mxCell>
            </root>
        </mxGraphModel>
    </diagram>
    <diagram id="eVjxRtyccAp2PWj6nh6i" name="定时器">
        <mxGraphModel dx="2387" dy="847" grid="1" gridSize="10" guides="1" tooltips="1" connect="1" arrows="1" fold="1" page="0" pageScale="1" pageWidth="827" pageHeight="1169" math="0" shadow="0">
            <root>
                <mxCell id="0"/>
                <mxCell id="1" parent="0"/>
                <mxCell id="QqP07Mw7IFzBdGR8LC-X-66" style="edgeStyle=orthogonalEdgeStyle;html=1;entryX=0.1;entryY=0.5;entryDx=0;entryDy=0;entryPerimeter=0;" parent="1" source="QqP07Mw7IFzBdGR8LC-X-2" target="QqP07Mw7IFzBdGR8LC-X-64" edge="1">
                    <mxGeometry relative="1" as="geometry">
                        <Array as="points">
                            <mxPoint x="55" y="400"/>
                            <mxPoint x="-320" y="400"/>
                            <mxPoint x="-320" y="170"/>
                            <mxPoint x="760" y="170"/>
                            <mxPoint x="760" y="640"/>
                        </Array>
                    </mxGeometry>
                </mxCell>
                <mxCell id="QqP07Mw7IFzBdGR8LC-X-2" value="" style="rounded=1;whiteSpace=wrap;html=1;" parent="1" vertex="1">
                    <mxGeometry x="-100" y="300" width="310" height="70" as="geometry"/>
                </mxCell>
                <mxCell id="QqP07Mw7IFzBdGR8LC-X-3" style="edgeStyle=none;rounded=0;orthogonalLoop=1;jettySize=auto;html=1;entryX=1;entryY=0.5;entryDx=0;entryDy=0;" parent="1" source="QqP07Mw7IFzBdGR8LC-X-6" target="QqP07Mw7IFzBdGR8LC-X-2" edge="1">
                    <mxGeometry relative="1" as="geometry"/>
                </mxCell>
                <mxCell id="QqP07Mw7IFzBdGR8LC-X-4" style="edgeStyle=none;rounded=0;orthogonalLoop=1;jettySize=auto;html=1;entryX=1;entryY=0.5;entryDx=0;entryDy=0;" parent="1" source="QqP07Mw7IFzBdGR8LC-X-6" target="QqP07Mw7IFzBdGR8LC-X-28" edge="1">
                    <mxGeometry relative="1" as="geometry"/>
                </mxCell>
                <mxCell id="QqP07Mw7IFzBdGR8LC-X-5" style="edgeStyle=none;rounded=0;orthogonalLoop=1;jettySize=auto;html=1;entryX=1;entryY=0.5;entryDx=0;entryDy=0;" parent="1" source="QqP07Mw7IFzBdGR8LC-X-6" target="QqP07Mw7IFzBdGR8LC-X-49" edge="1">
                    <mxGeometry relative="1" as="geometry"/>
                </mxCell>
                <mxCell id="QqP07Mw7IFzBdGR8LC-X-6" value="时间发射器&lt;br&gt;【监视时间间隔】" style="ellipse;whiteSpace=wrap;html=1;aspect=fixed;" parent="1" vertex="1">
                    <mxGeometry x="414" y="560.5" width="120" height="120" as="geometry"/>
                </mxCell>
                <mxCell id="QqP07Mw7IFzBdGR8LC-X-7" style="edgeStyle=none;rounded=0;orthogonalLoop=1;jettySize=auto;html=1;" parent="1" source="QqP07Mw7IFzBdGR8LC-X-8" target="QqP07Mw7IFzBdGR8LC-X-6" edge="1">
                    <mxGeometry relative="1" as="geometry"/>
                </mxCell>
                <mxCell id="QqP07Mw7IFzBdGR8LC-X-8" value="epoll" style="ellipse;whiteSpace=wrap;html=1;aspect=fixed;fillColor=#fa6800;fontColor=#000000;strokeColor=#C73500;" parent="1" vertex="1">
                    <mxGeometry x="540" y="485" width="70" height="70" as="geometry"/>
                </mxCell>
                <mxCell id="QqP07Mw7IFzBdGR8LC-X-9" style="edgeStyle=none;rounded=0;orthogonalLoop=1;jettySize=auto;html=1;" parent="1" source="QqP07Mw7IFzBdGR8LC-X-10" target="QqP07Mw7IFzBdGR8LC-X-6" edge="1">
                    <mxGeometry relative="1" as="geometry"/>
                </mxCell>
                <mxCell id="QqP07Mw7IFzBdGR8LC-X-10" value="sleep" style="ellipse;whiteSpace=wrap;html=1;aspect=fixed;" parent="1" vertex="1">
                    <mxGeometry x="584" y="570.5" width="39.5" height="39.5" as="geometry"/>
                </mxCell>
                <mxCell id="QqP07Mw7IFzBdGR8LC-X-11" style="edgeStyle=none;rounded=0;orthogonalLoop=1;jettySize=auto;html=1;entryX=1;entryY=0.5;entryDx=0;entryDy=0;" parent="1" source="QqP07Mw7IFzBdGR8LC-X-12" target="QqP07Mw7IFzBdGR8LC-X-6" edge="1">
                    <mxGeometry relative="1" as="geometry"/>
                </mxCell>
                <mxCell id="QqP07Mw7IFzBdGR8LC-X-12" value="usleep" style="ellipse;whiteSpace=wrap;html=1;aspect=fixed;" parent="1" vertex="1">
                    <mxGeometry x="579" y="610.5" width="40" height="40" as="geometry"/>
                </mxCell>
                <mxCell id="QqP07Mw7IFzBdGR8LC-X-13" style="edgeStyle=none;rounded=0;orthogonalLoop=1;jettySize=auto;html=1;" parent="1" source="QqP07Mw7IFzBdGR8LC-X-14" target="QqP07Mw7IFzBdGR8LC-X-6" edge="1">
                    <mxGeometry relative="1" as="geometry"/>
                </mxCell>
                <mxCell id="QqP07Mw7IFzBdGR8LC-X-14" value="nanosleep" style="ellipse;whiteSpace=wrap;html=1;aspect=fixed;" parent="1" vertex="1">
                    <mxGeometry x="569" y="660.5" width="60" height="60" as="geometry"/>
                </mxCell>
                <mxCell id="QqP07Mw7IFzBdGR8LC-X-15" style="edgeStyle=none;rounded=0;orthogonalLoop=1;jettySize=auto;html=1;" parent="1" source="QqP07Mw7IFzBdGR8LC-X-16" target="QqP07Mw7IFzBdGR8LC-X-6" edge="1">
                    <mxGeometry relative="1" as="geometry"/>
                </mxCell>
                <mxCell id="QqP07Mw7IFzBdGR8LC-X-16" value="alarm" style="ellipse;whiteSpace=wrap;html=1;aspect=fixed;" parent="1" vertex="1">
                    <mxGeometry x="569" y="730" width="50" height="50" as="geometry"/>
                </mxCell>
                <mxCell id="QqP07Mw7IFzBdGR8LC-X-19" value="" style="edgeStyle=none;rounded=0;orthogonalLoop=1;jettySize=auto;html=1;" parent="1" source="QqP07Mw7IFzBdGR8LC-X-20" target="QqP07Mw7IFzBdGR8LC-X-22" edge="1">
                    <mxGeometry relative="1" as="geometry"/>
                </mxCell>
                <mxCell id="QqP07Mw7IFzBdGR8LC-X-20" value="3s" style="ellipse;whiteSpace=wrap;html=1;aspect=fixed;" parent="1" vertex="1">
                    <mxGeometry x="-80" y="310" width="50" height="50" as="geometry"/>
                </mxCell>
                <mxCell id="QqP07Mw7IFzBdGR8LC-X-21" value="" style="edgeStyle=none;rounded=0;orthogonalLoop=1;jettySize=auto;html=1;" parent="1" source="QqP07Mw7IFzBdGR8LC-X-22" target="QqP07Mw7IFzBdGR8LC-X-24" edge="1">
                    <mxGeometry relative="1" as="geometry"/>
                </mxCell>
                <mxCell id="QqP07Mw7IFzBdGR8LC-X-22" value="1s" style="ellipse;whiteSpace=wrap;html=1;aspect=fixed;" parent="1" vertex="1">
                    <mxGeometry y="310" width="50" height="50" as="geometry"/>
                </mxCell>
                <mxCell id="QqP07Mw7IFzBdGR8LC-X-23" value="" style="edgeStyle=none;rounded=0;orthogonalLoop=1;jettySize=auto;html=1;" parent="1" source="QqP07Mw7IFzBdGR8LC-X-24" target="QqP07Mw7IFzBdGR8LC-X-25" edge="1">
                    <mxGeometry relative="1" as="geometry"/>
                </mxCell>
                <mxCell id="QqP07Mw7IFzBdGR8LC-X-24" value="2s" style="ellipse;whiteSpace=wrap;html=1;aspect=fixed;" parent="1" vertex="1">
                    <mxGeometry x="70" y="310" width="50" height="50" as="geometry"/>
                </mxCell>
                <mxCell id="QqP07Mw7IFzBdGR8LC-X-25" value="1s" style="ellipse;whiteSpace=wrap;html=1;aspect=fixed;" parent="1" vertex="1">
                    <mxGeometry x="140" y="310" width="50" height="50" as="geometry"/>
                </mxCell>
                <mxCell id="QqP07Mw7IFzBdGR8LC-X-26" value="无序链表" style="text;html=1;strokeColor=none;fillColor=none;align=center;verticalAlign=middle;whiteSpace=wrap;rounded=0;" parent="1" vertex="1">
                    <mxGeometry x="-160" y="320" width="60" height="30" as="geometry"/>
                </mxCell>
                <mxCell id="QqP07Mw7IFzBdGR8LC-X-27" value="时间节点容器" style="text;html=1;strokeColor=none;fillColor=none;align=center;verticalAlign=middle;whiteSpace=wrap;rounded=0;" parent="1" vertex="1">
                    <mxGeometry x="2.5" y="270" width="105" height="30" as="geometry"/>
                </mxCell>
                <mxCell id="QqP07Mw7IFzBdGR8LC-X-67" style="edgeStyle=orthogonalEdgeStyle;html=1;entryX=0.1;entryY=0.5;entryDx=0;entryDy=0;entryPerimeter=0;" parent="1" source="QqP07Mw7IFzBdGR8LC-X-28" target="QqP07Mw7IFzBdGR8LC-X-64" edge="1">
                    <mxGeometry relative="1" as="geometry">
                        <Array as="points">
                            <mxPoint x="55" y="680"/>
                            <mxPoint x="-320" y="680"/>
                            <mxPoint x="-320" y="170"/>
                            <mxPoint x="760" y="170"/>
                            <mxPoint x="760" y="640"/>
                        </Array>
                    </mxGeometry>
                </mxCell>
                <mxCell id="QqP07Mw7IFzBdGR8LC-X-28" value="" style="rounded=1;whiteSpace=wrap;html=1;" parent="1" vertex="1">
                    <mxGeometry x="-100" y="430" width="310" height="220" as="geometry"/>
                </mxCell>
                <mxCell id="QqP07Mw7IFzBdGR8LC-X-29" value="" style="edgeStyle=none;rounded=0;orthogonalLoop=1;jettySize=auto;html=1;" parent="1" source="QqP07Mw7IFzBdGR8LC-X-32" target="QqP07Mw7IFzBdGR8LC-X-46" edge="1">
                    <mxGeometry relative="1" as="geometry"/>
                </mxCell>
                <mxCell id="QqP07Mw7IFzBdGR8LC-X-30" value="" style="edgeStyle=none;rounded=0;orthogonalLoop=1;jettySize=auto;html=1;" parent="1" source="QqP07Mw7IFzBdGR8LC-X-32" target="QqP07Mw7IFzBdGR8LC-X-46" edge="1">
                    <mxGeometry relative="1" as="geometry"/>
                </mxCell>
                <mxCell id="QqP07Mw7IFzBdGR8LC-X-31" style="edgeStyle=none;rounded=0;orthogonalLoop=1;jettySize=auto;html=1;" parent="1" source="QqP07Mw7IFzBdGR8LC-X-32" target="QqP07Mw7IFzBdGR8LC-X-47" edge="1">
                    <mxGeometry relative="1" as="geometry"/>
                </mxCell>
                <mxCell id="QqP07Mw7IFzBdGR8LC-X-32" value="3s" style="ellipse;whiteSpace=wrap;html=1;aspect=fixed;" parent="1" vertex="1">
                    <mxGeometry x="-60" y="490" width="50" height="50" as="geometry"/>
                </mxCell>
                <mxCell id="QqP07Mw7IFzBdGR8LC-X-33" value="" style="edgeStyle=none;rounded=0;orthogonalLoop=1;jettySize=auto;html=1;" parent="1" source="QqP07Mw7IFzBdGR8LC-X-35" target="QqP07Mw7IFzBdGR8LC-X-41" edge="1">
                    <mxGeometry relative="1" as="geometry"/>
                </mxCell>
                <mxCell id="QqP07Mw7IFzBdGR8LC-X-34" style="edgeStyle=none;rounded=0;orthogonalLoop=1;jettySize=auto;html=1;" parent="1" source="QqP07Mw7IFzBdGR8LC-X-35" target="QqP07Mw7IFzBdGR8LC-X-32" edge="1">
                    <mxGeometry relative="1" as="geometry"/>
                </mxCell>
                <mxCell id="QqP07Mw7IFzBdGR8LC-X-35" value="1s" style="ellipse;whiteSpace=wrap;html=1;aspect=fixed;" parent="1" vertex="1">
                    <mxGeometry y="440" width="50" height="50" as="geometry"/>
                </mxCell>
                <mxCell id="QqP07Mw7IFzBdGR8LC-X-36" value="" style="edgeStyle=none;rounded=0;orthogonalLoop=1;jettySize=auto;html=1;" parent="1" source="QqP07Mw7IFzBdGR8LC-X-41" target="QqP07Mw7IFzBdGR8LC-X-43" edge="1">
                    <mxGeometry relative="1" as="geometry"/>
                </mxCell>
                <mxCell id="QqP07Mw7IFzBdGR8LC-X-37" value="" style="edgeStyle=none;rounded=0;orthogonalLoop=1;jettySize=auto;html=1;" parent="1" source="QqP07Mw7IFzBdGR8LC-X-41" target="QqP07Mw7IFzBdGR8LC-X-43" edge="1">
                    <mxGeometry relative="1" as="geometry"/>
                </mxCell>
                <mxCell id="QqP07Mw7IFzBdGR8LC-X-38" value="" style="edgeStyle=none;rounded=0;orthogonalLoop=1;jettySize=auto;html=1;" parent="1" source="QqP07Mw7IFzBdGR8LC-X-41" target="QqP07Mw7IFzBdGR8LC-X-43" edge="1">
                    <mxGeometry relative="1" as="geometry"/>
                </mxCell>
                <mxCell id="QqP07Mw7IFzBdGR8LC-X-39" value="" style="edgeStyle=none;rounded=0;orthogonalLoop=1;jettySize=auto;html=1;" parent="1" source="QqP07Mw7IFzBdGR8LC-X-41" target="QqP07Mw7IFzBdGR8LC-X-43" edge="1">
                    <mxGeometry relative="1" as="geometry"/>
                </mxCell>
                <mxCell id="QqP07Mw7IFzBdGR8LC-X-40" style="edgeStyle=none;rounded=0;orthogonalLoop=1;jettySize=auto;html=1;" parent="1" source="QqP07Mw7IFzBdGR8LC-X-41" target="QqP07Mw7IFzBdGR8LC-X-45" edge="1">
                    <mxGeometry relative="1" as="geometry"/>
                </mxCell>
                <mxCell id="QqP07Mw7IFzBdGR8LC-X-41" value="1s" style="ellipse;whiteSpace=wrap;html=1;aspect=fixed;" parent="1" vertex="1">
                    <mxGeometry x="57.5" y="490" width="50" height="50" as="geometry"/>
                </mxCell>
                <mxCell id="QqP07Mw7IFzBdGR8LC-X-42" value="" style="edgeStyle=none;rounded=0;orthogonalLoop=1;jettySize=auto;html=1;" parent="1" source="QqP07Mw7IFzBdGR8LC-X-43" target="QqP07Mw7IFzBdGR8LC-X-41" edge="1">
                    <mxGeometry relative="1" as="geometry"/>
                </mxCell>
                <mxCell id="QqP07Mw7IFzBdGR8LC-X-43" value="3s" style="ellipse;whiteSpace=wrap;html=1;aspect=fixed;" parent="1" vertex="1">
                    <mxGeometry x="120" y="540" width="50" height="50" as="geometry"/>
                </mxCell>
                <mxCell id="QqP07Mw7IFzBdGR8LC-X-44" value="最小堆" style="text;html=1;strokeColor=none;fillColor=none;align=center;verticalAlign=middle;whiteSpace=wrap;rounded=0;" parent="1" vertex="1">
                    <mxGeometry x="-160" y="525" width="60" height="30" as="geometry"/>
                </mxCell>
                <mxCell id="QqP07Mw7IFzBdGR8LC-X-45" value="2s" style="ellipse;whiteSpace=wrap;html=1;aspect=fixed;" parent="1" vertex="1">
                    <mxGeometry x="50" y="580" width="50" height="50" as="geometry"/>
                </mxCell>
                <mxCell id="QqP07Mw7IFzBdGR8LC-X-46" value="4s" style="ellipse;whiteSpace=wrap;html=1;aspect=fixed;" parent="1" vertex="1">
                    <mxGeometry x="-90" y="560" width="50" height="50" as="geometry"/>
                </mxCell>
                <mxCell id="QqP07Mw7IFzBdGR8LC-X-47" value="3s" style="ellipse;whiteSpace=wrap;html=1;aspect=fixed;" parent="1" vertex="1">
                    <mxGeometry x="-20" y="550" width="50" height="50" as="geometry"/>
                </mxCell>
                <mxCell id="QqP07Mw7IFzBdGR8LC-X-48" value="时间轮" style="text;html=1;strokeColor=none;fillColor=none;align=center;verticalAlign=middle;whiteSpace=wrap;rounded=0;" parent="1" vertex="1">
                    <mxGeometry x="-160" y="810" width="60" height="30" as="geometry"/>
                </mxCell>
                <mxCell id="QqP07Mw7IFzBdGR8LC-X-68" style="edgeStyle=orthogonalEdgeStyle;html=1;entryX=0.1;entryY=0.5;entryDx=0;entryDy=0;entryPerimeter=0;" parent="1" source="QqP07Mw7IFzBdGR8LC-X-49" target="QqP07Mw7IFzBdGR8LC-X-64" edge="1">
                    <mxGeometry relative="1" as="geometry">
                        <Array as="points">
                            <mxPoint x="55" y="970"/>
                            <mxPoint x="-320" y="970"/>
                            <mxPoint x="-320" y="170"/>
                            <mxPoint x="760" y="170"/>
                            <mxPoint x="760" y="640"/>
                        </Array>
                    </mxGeometry>
                </mxCell>
                <mxCell id="QqP07Mw7IFzBdGR8LC-X-49" value="" style="rounded=1;whiteSpace=wrap;html=1;" parent="1" vertex="1">
                    <mxGeometry x="-100" y="710" width="310" height="220" as="geometry"/>
                </mxCell>
                <mxCell id="QqP07Mw7IFzBdGR8LC-X-50" value="" style="ellipse;whiteSpace=wrap;html=1;aspect=fixed;" parent="1" vertex="1">
                    <mxGeometry x="-77.5" y="730" width="80" height="80" as="geometry"/>
                </mxCell>
                <mxCell id="QqP07Mw7IFzBdGR8LC-X-51" value="时" style="ellipse;whiteSpace=wrap;html=1;aspect=fixed;" parent="1" vertex="1">
                    <mxGeometry x="-67.5" y="740" width="60" height="60" as="geometry"/>
                </mxCell>
                <mxCell id="QqP07Mw7IFzBdGR8LC-X-52" value="" style="ellipse;whiteSpace=wrap;html=1;aspect=fixed;" parent="1" vertex="1">
                    <mxGeometry y="785" width="80" height="80" as="geometry"/>
                </mxCell>
                <mxCell id="QqP07Mw7IFzBdGR8LC-X-53" value="分" style="ellipse;whiteSpace=wrap;html=1;aspect=fixed;" parent="1" vertex="1">
                    <mxGeometry x="10" y="795" width="60" height="60" as="geometry"/>
                </mxCell>
                <mxCell id="QqP07Mw7IFzBdGR8LC-X-54" value="" style="ellipse;whiteSpace=wrap;html=1;aspect=fixed;" parent="1" vertex="1">
                    <mxGeometry x="90" y="840" width="80" height="80" as="geometry"/>
                </mxCell>
                <mxCell id="QqP07Mw7IFzBdGR8LC-X-55" value="秒" style="ellipse;whiteSpace=wrap;html=1;aspect=fixed;" parent="1" vertex="1">
                    <mxGeometry x="100" y="850" width="60" height="60" as="geometry"/>
                </mxCell>
                <mxCell id="QqP07Mw7IFzBdGR8LC-X-59" style="edgeStyle=none;rounded=0;orthogonalLoop=1;jettySize=auto;html=1;" parent="1" source="QqP07Mw7IFzBdGR8LC-X-60" target="QqP07Mw7IFzBdGR8LC-X-6" edge="1">
                    <mxGeometry relative="1" as="geometry"/>
                </mxCell>
                <mxCell id="QqP07Mw7IFzBdGR8LC-X-60" value="setitimer" style="ellipse;whiteSpace=wrap;html=1;aspect=fixed;" parent="1" vertex="1">
                    <mxGeometry x="514" y="780" width="70" height="70" as="geometry"/>
                </mxCell>
                <mxCell id="QqP07Mw7IFzBdGR8LC-X-75" style="edgeStyle=none;html=1;" parent="1" source="QqP07Mw7IFzBdGR8LC-X-62" target="QqP07Mw7IFzBdGR8LC-X-8" edge="1">
                    <mxGeometry relative="1" as="geometry"/>
                </mxCell>
                <mxCell id="QqP07Mw7IFzBdGR8LC-X-62" value="timerfd" style="ellipse;whiteSpace=wrap;html=1;aspect=fixed;" parent="1" vertex="1">
                    <mxGeometry x="610" y="440.5" width="50" height="50" as="geometry"/>
                </mxCell>
                <mxCell id="QqP07Mw7IFzBdGR8LC-X-64" value="" style="shape=curlyBracket;whiteSpace=wrap;html=1;rounded=1;flipH=1;labelPosition=right;verticalLabelPosition=middle;align=left;verticalAlign=middle;" parent="1" vertex="1">
                    <mxGeometry x="700" y="440" width="20" height="400" as="geometry"/>
                </mxCell>
                <mxCell id="QqP07Mw7IFzBdGR8LC-X-70" value="遍历链表,获取最近超时时间/ 固定时间刻度" style="text;html=1;strokeColor=none;fillColor=none;align=center;verticalAlign=middle;whiteSpace=wrap;rounded=0;" parent="1" vertex="1">
                    <mxGeometry x="-317.5" y="370" width="250" height="30" as="geometry"/>
                </mxCell>
                <mxCell id="QqP07Mw7IFzBdGR8LC-X-71" value="根节点为最近的超时时间/ 固定时间刻度" style="text;html=1;strokeColor=none;fillColor=none;align=center;verticalAlign=middle;whiteSpace=wrap;rounded=0;" parent="1" vertex="1">
                    <mxGeometry x="-317.5" y="650.5" width="230" height="30" as="geometry"/>
                </mxCell>
                <mxCell id="QqP07Mw7IFzBdGR8LC-X-72" value="固定时间刻度" style="text;html=1;strokeColor=none;fillColor=none;align=center;verticalAlign=middle;whiteSpace=wrap;rounded=0;" parent="1" vertex="1">
                    <mxGeometry x="-300" y="940" width="150" height="30" as="geometry"/>
                </mxCell>
            </root>
        </mxGraphModel>
    </diagram>
    <diagram id="Lqza6SncNZf7w7KwhXHg" name="easyip_UML">
        <mxGraphModel dx="1888" dy="942" grid="1" gridSize="10" guides="1" tooltips="1" connect="1" arrows="1" fold="1" page="0" pageScale="1" pageWidth="827" pageHeight="1169" math="0" shadow="0">
            <root>
                <mxCell id="0"/>
                <mxCell id="1" parent="0"/>
                <mxCell id="PMd-vDESAn_FEOJpm-kP-1" value="NetDevice" style="swimlane;fontStyle=3;align=center;verticalAlign=top;childLayout=stackLayout;horizontal=1;startSize=26;horizontalStack=0;resizeParent=1;resizeParentMax=0;resizeLast=0;collapsible=1;marginBottom=0;" parent="1" vertex="1">
                    <mxGeometry x="300" y="110" width="203" height="186" as="geometry"/>
                </mxCell>
                <mxCell id="PMd-vDESAn_FEOJpm-kP-2" value="# mtu：int" style="text;strokeColor=none;fillColor=none;align=left;verticalAlign=top;spacingLeft=4;spacingRight=4;overflow=hidden;rotatable=0;points=[[0,0.5],[1,0.5]];portConstraint=eastwest;" parent="PMd-vDESAn_FEOJpm-kP-1" vertex="1">
                    <mxGeometry y="26" width="203" height="65" as="geometry"/>
                </mxCell>
                <mxCell id="PMd-vDESAn_FEOJpm-kP-3" value="" style="line;strokeWidth=1;fillColor=none;align=left;verticalAlign=middle;spacingTop=-1;spacingLeft=3;spacingRight=3;rotatable=0;labelPosition=right;points=[];portConstraint=eastwest;" parent="PMd-vDESAn_FEOJpm-kP-1" vertex="1">
                    <mxGeometry y="91" width="203" height="8" as="geometry"/>
                </mxCell>
                <mxCell id="PMd-vDESAn_FEOJpm-kP-4" value="+ Init：void" style="text;strokeColor=none;fillColor=none;align=left;verticalAlign=top;spacingLeft=4;spacingRight=4;overflow=hidden;rotatable=0;points=[[0,0.5],[1,0.5]];portConstraint=eastwest;fontStyle=2" parent="PMd-vDESAn_FEOJpm-kP-1" vertex="1">
                    <mxGeometry y="99" width="203" height="29" as="geometry"/>
                </mxCell>
                <mxCell id="PMd-vDESAn_FEOJpm-kP-5" value="+ Exit：void" style="text;strokeColor=none;fillColor=none;align=left;verticalAlign=top;spacingLeft=4;spacingRight=4;overflow=hidden;rotatable=0;points=[[0,0.5],[1,0.5]];portConstraint=eastwest;fontStyle=2" parent="PMd-vDESAn_FEOJpm-kP-1" vertex="1">
                    <mxGeometry y="128" width="203" height="29" as="geometry"/>
                </mxCell>
                <mxCell id="PMd-vDESAn_FEOJpm-kP-6" value="+ Xmit：void" style="text;strokeColor=none;fillColor=none;align=left;verticalAlign=top;spacingLeft=4;spacingRight=4;overflow=hidden;rotatable=0;points=[[0,0.5],[1,0.5]];portConstraint=eastwest;fontStyle=2" parent="PMd-vDESAn_FEOJpm-kP-1" vertex="1">
                    <mxGeometry y="157" width="203" height="29" as="geometry"/>
                </mxCell>
                <mxCell id="PMd-vDESAn_FEOJpm-kP-7" value="TapDevice" style="swimlane;fontStyle=1;align=center;verticalAlign=top;childLayout=stackLayout;horizontal=1;startSize=26;horizontalStack=0;resizeParent=1;resizeParentMax=0;resizeLast=0;collapsible=1;marginBottom=0;" parent="1" vertex="1">
                    <mxGeometry x="150" y="430" width="160" height="86" as="geometry"/>
                </mxCell>
                <mxCell id="PMd-vDESAn_FEOJpm-kP-8" value="+ field: type" style="text;strokeColor=none;fillColor=none;align=left;verticalAlign=top;spacingLeft=4;spacingRight=4;overflow=hidden;rotatable=0;points=[[0,0.5],[1,0.5]];portConstraint=eastwest;" parent="PMd-vDESAn_FEOJpm-kP-7" vertex="1">
                    <mxGeometry y="26" width="160" height="26" as="geometry"/>
                </mxCell>
                <mxCell id="PMd-vDESAn_FEOJpm-kP-9" value="" style="line;strokeWidth=1;fillColor=none;align=left;verticalAlign=middle;spacingTop=-1;spacingLeft=3;spacingRight=3;rotatable=0;labelPosition=right;points=[];portConstraint=eastwest;strokeColor=inherit;" parent="PMd-vDESAn_FEOJpm-kP-7" vertex="1">
                    <mxGeometry y="52" width="160" height="8" as="geometry"/>
                </mxCell>
                <mxCell id="PMd-vDESAn_FEOJpm-kP-10" value="+ method(type): type" style="text;strokeColor=none;fillColor=none;align=left;verticalAlign=top;spacingLeft=4;spacingRight=4;overflow=hidden;rotatable=0;points=[[0,0.5],[1,0.5]];portConstraint=eastwest;" parent="PMd-vDESAn_FEOJpm-kP-7" vertex="1">
                    <mxGeometry y="60" width="160" height="26" as="geometry"/>
                </mxCell>
                <mxCell id="PPH5F1T3zKEgnuzhOgwB-1" value="&amp;lt;&amp;lt;extend&amp;gt;&amp;gt;" style="html=1;verticalAlign=bottom;labelBackgroundColor=none;endArrow=open;endFill=0;dashed=1;exitX=0.5;exitY=0;exitDx=0;exitDy=0;" parent="1" source="PMd-vDESAn_FEOJpm-kP-7" target="PMd-vDESAn_FEOJpm-kP-1" edge="1">
                    <mxGeometry width="160" relative="1" as="geometry">
                        <mxPoint x="630" y="410" as="sourcePoint"/>
                        <mxPoint x="790" y="410" as="targetPoint"/>
                    </mxGeometry>
                </mxCell>
                <mxCell id="weWCq1ISt0BgWfno82yv-1" value="LoopDevice" style="swimlane;fontStyle=1;align=center;verticalAlign=top;childLayout=stackLayout;horizontal=1;startSize=26;horizontalStack=0;resizeParent=1;resizeParentMax=0;resizeLast=0;collapsible=1;marginBottom=0;" parent="1" vertex="1">
                    <mxGeometry x="460" y="430" width="160" height="86" as="geometry"/>
                </mxCell>
                <mxCell id="weWCq1ISt0BgWfno82yv-2" value="+ field: type" style="text;strokeColor=none;fillColor=none;align=left;verticalAlign=top;spacingLeft=4;spacingRight=4;overflow=hidden;rotatable=0;points=[[0,0.5],[1,0.5]];portConstraint=eastwest;" parent="weWCq1ISt0BgWfno82yv-1" vertex="1">
                    <mxGeometry y="26" width="160" height="26" as="geometry"/>
                </mxCell>
                <mxCell id="weWCq1ISt0BgWfno82yv-3" value="" style="line;strokeWidth=1;fillColor=none;align=left;verticalAlign=middle;spacingTop=-1;spacingLeft=3;spacingRight=3;rotatable=0;labelPosition=right;points=[];portConstraint=eastwest;strokeColor=inherit;" parent="weWCq1ISt0BgWfno82yv-1" vertex="1">
                    <mxGeometry y="52" width="160" height="8" as="geometry"/>
                </mxCell>
                <mxCell id="weWCq1ISt0BgWfno82yv-4" value="+ method(type): type" style="text;strokeColor=none;fillColor=none;align=left;verticalAlign=top;spacingLeft=4;spacingRight=4;overflow=hidden;rotatable=0;points=[[0,0.5],[1,0.5]];portConstraint=eastwest;" parent="weWCq1ISt0BgWfno82yv-1" vertex="1">
                    <mxGeometry y="60" width="160" height="26" as="geometry"/>
                </mxCell>
                <mxCell id="weWCq1ISt0BgWfno82yv-5" value="&amp;lt;&amp;lt;extend&amp;gt;&amp;gt;" style="html=1;verticalAlign=bottom;labelBackgroundColor=none;endArrow=open;endFill=0;dashed=1;" parent="1" source="weWCq1ISt0BgWfno82yv-1" target="PMd-vDESAn_FEOJpm-kP-1" edge="1">
                    <mxGeometry width="160" relative="1" as="geometry">
                        <mxPoint x="330" y="474" as="sourcePoint"/>
                        <mxPoint x="431.2378854625549" y="340" as="targetPoint"/>
                    </mxGeometry>
                </mxCell>
                <mxCell id="uq4R98LDvMKcroeYP5Fp-1" value="SocketAPI" style="swimlane;fontStyle=3;align=center;verticalAlign=top;childLayout=stackLayout;horizontal=1;startSize=26;horizontalStack=0;resizeParent=1;resizeParentMax=0;resizeLast=0;collapsible=1;marginBottom=0;" parent="1" vertex="1">
                    <mxGeometry x="1070" y="30" width="203" height="324" as="geometry"/>
                </mxCell>
                <mxCell id="uq4R98LDvMKcroeYP5Fp-3" value="" style="line;strokeWidth=1;fillColor=none;align=left;verticalAlign=middle;spacingTop=-1;spacingLeft=3;spacingRight=3;rotatable=0;labelPosition=right;points=[];portConstraint=eastwest;" parent="uq4R98LDvMKcroeYP5Fp-1" vertex="1">
                    <mxGeometry y="26" width="203" height="8" as="geometry"/>
                </mxCell>
                <mxCell id="uq4R98LDvMKcroeYP5Fp-4" value="+ socket：int" style="text;strokeColor=none;fillColor=none;align=left;verticalAlign=top;spacingLeft=4;spacingRight=4;overflow=hidden;rotatable=0;points=[[0,0.5],[1,0.5]];portConstraint=eastwest;fontStyle=2" parent="uq4R98LDvMKcroeYP5Fp-1" vertex="1">
                    <mxGeometry y="34" width="203" height="29" as="geometry"/>
                </mxCell>
                <mxCell id="uq4R98LDvMKcroeYP5Fp-5" value="+ close：int" style="text;strokeColor=none;fillColor=none;align=left;verticalAlign=top;spacingLeft=4;spacingRight=4;overflow=hidden;rotatable=0;points=[[0,0.5],[1,0.5]];portConstraint=eastwest;fontStyle=2" parent="uq4R98LDvMKcroeYP5Fp-1" vertex="1">
                    <mxGeometry y="63" width="203" height="29" as="geometry"/>
                </mxCell>
                <mxCell id="uq4R98LDvMKcroeYP5Fp-7" value="+ accept：int" style="text;strokeColor=none;fillColor=none;align=left;verticalAlign=top;spacingLeft=4;spacingRight=4;overflow=hidden;rotatable=0;points=[[0,0.5],[1,0.5]];portConstraint=eastwest;fontStyle=2" parent="uq4R98LDvMKcroeYP5Fp-1" vertex="1">
                    <mxGeometry y="92" width="203" height="29" as="geometry"/>
                </mxCell>
                <mxCell id="uq4R98LDvMKcroeYP5Fp-8" value="+ listen：int" style="text;strokeColor=none;fillColor=none;align=left;verticalAlign=top;spacingLeft=4;spacingRight=4;overflow=hidden;rotatable=0;points=[[0,0.5],[1,0.5]];portConstraint=eastwest;fontStyle=2" parent="uq4R98LDvMKcroeYP5Fp-1" vertex="1">
                    <mxGeometry y="121" width="203" height="29" as="geometry"/>
                </mxCell>
                <mxCell id="uq4R98LDvMKcroeYP5Fp-9" value="+ bind：int" style="text;strokeColor=none;fillColor=none;align=left;verticalAlign=top;spacingLeft=4;spacingRight=4;overflow=hidden;rotatable=0;points=[[0,0.5],[1,0.5]];portConstraint=eastwest;fontStyle=2" parent="uq4R98LDvMKcroeYP5Fp-1" vertex="1">
                    <mxGeometry y="150" width="203" height="29" as="geometry"/>
                </mxCell>
                <mxCell id="uq4R98LDvMKcroeYP5Fp-10" value="+ connect：int" style="text;strokeColor=none;fillColor=none;align=left;verticalAlign=top;spacingLeft=4;spacingRight=4;overflow=hidden;rotatable=0;points=[[0,0.5],[1,0.5]];portConstraint=eastwest;fontStyle=2" parent="uq4R98LDvMKcroeYP5Fp-1" vertex="1">
                    <mxGeometry y="179" width="203" height="29" as="geometry"/>
                </mxCell>
                <mxCell id="uq4R98LDvMKcroeYP5Fp-11" value="+ read：int" style="text;strokeColor=none;fillColor=none;align=left;verticalAlign=top;spacingLeft=4;spacingRight=4;overflow=hidden;rotatable=0;points=[[0,0.5],[1,0.5]];portConstraint=eastwest;fontStyle=2" parent="uq4R98LDvMKcroeYP5Fp-1" vertex="1">
                    <mxGeometry y="208" width="203" height="29" as="geometry"/>
                </mxCell>
                <mxCell id="uq4R98LDvMKcroeYP5Fp-12" value="+ write：int" style="text;strokeColor=none;fillColor=none;align=left;verticalAlign=top;spacingLeft=4;spacingRight=4;overflow=hidden;rotatable=0;points=[[0,0.5],[1,0.5]];portConstraint=eastwest;fontStyle=2" parent="uq4R98LDvMKcroeYP5Fp-1" vertex="1">
                    <mxGeometry y="237" width="203" height="29" as="geometry"/>
                </mxCell>
                <mxCell id="uq4R98LDvMKcroeYP5Fp-13" value="+ send：int" style="text;strokeColor=none;fillColor=none;align=left;verticalAlign=top;spacingLeft=4;spacingRight=4;overflow=hidden;rotatable=0;points=[[0,0.5],[1,0.5]];portConstraint=eastwest;fontStyle=2" parent="uq4R98LDvMKcroeYP5Fp-1" vertex="1">
                    <mxGeometry y="266" width="203" height="29" as="geometry"/>
                </mxCell>
                <mxCell id="uq4R98LDvMKcroeYP5Fp-6" value="+ recv：pkbuf" style="text;strokeColor=none;fillColor=none;align=left;verticalAlign=top;spacingLeft=4;spacingRight=4;overflow=hidden;rotatable=0;points=[[0,0.5],[1,0.5]];portConstraint=eastwest;fontStyle=2" parent="uq4R98LDvMKcroeYP5Fp-1" vertex="1">
                    <mxGeometry y="295" width="203" height="29" as="geometry"/>
                </mxCell>
                <mxCell id="uq4R98LDvMKcroeYP5Fp-14" value="TcpSocket" style="swimlane;fontStyle=1;align=center;verticalAlign=top;childLayout=stackLayout;horizontal=1;startSize=26;horizontalStack=0;resizeParent=1;resizeParentMax=0;resizeLast=0;collapsible=1;marginBottom=0;" parent="1" vertex="1">
                    <mxGeometry x="930" y="480" width="160" height="86" as="geometry"/>
                </mxCell>
                <mxCell id="uq4R98LDvMKcroeYP5Fp-15" value="+ field: type" style="text;strokeColor=none;fillColor=none;align=left;verticalAlign=top;spacingLeft=4;spacingRight=4;overflow=hidden;rotatable=0;points=[[0,0.5],[1,0.5]];portConstraint=eastwest;" parent="uq4R98LDvMKcroeYP5Fp-14" vertex="1">
                    <mxGeometry y="26" width="160" height="26" as="geometry"/>
                </mxCell>
                <mxCell id="uq4R98LDvMKcroeYP5Fp-16" value="" style="line;strokeWidth=1;fillColor=none;align=left;verticalAlign=middle;spacingTop=-1;spacingLeft=3;spacingRight=3;rotatable=0;labelPosition=right;points=[];portConstraint=eastwest;strokeColor=inherit;" parent="uq4R98LDvMKcroeYP5Fp-14" vertex="1">
                    <mxGeometry y="52" width="160" height="8" as="geometry"/>
                </mxCell>
                <mxCell id="uq4R98LDvMKcroeYP5Fp-17" value="+ method(type): type" style="text;strokeColor=none;fillColor=none;align=left;verticalAlign=top;spacingLeft=4;spacingRight=4;overflow=hidden;rotatable=0;points=[[0,0.5],[1,0.5]];portConstraint=eastwest;" parent="uq4R98LDvMKcroeYP5Fp-14" vertex="1">
                    <mxGeometry y="60" width="160" height="26" as="geometry"/>
                </mxCell>
                <mxCell id="uq4R98LDvMKcroeYP5Fp-19" value="&amp;lt;&amp;lt;extend&amp;gt;&amp;gt;" style="html=1;verticalAlign=bottom;labelBackgroundColor=none;endArrow=open;endFill=0;dashed=1;exitX=0.5;exitY=0;exitDx=0;exitDy=0;" parent="1" source="uq4R98LDvMKcroeYP5Fp-14" target="uq4R98LDvMKcroeYP5Fp-1" edge="1">
                    <mxGeometry width="160" relative="1" as="geometry">
                        <mxPoint x="1160" y="554" as="sourcePoint"/>
                        <mxPoint x="1261.237885462555" y="420" as="targetPoint"/>
                    </mxGeometry>
                </mxCell>
                <mxCell id="uq4R98LDvMKcroeYP5Fp-20" value="UdpSocket" style="swimlane;fontStyle=1;align=center;verticalAlign=top;childLayout=stackLayout;horizontal=1;startSize=26;horizontalStack=0;resizeParent=1;resizeParentMax=0;resizeLast=0;collapsible=1;marginBottom=0;" parent="1" vertex="1">
                    <mxGeometry x="1120" y="480" width="160" height="86" as="geometry"/>
                </mxCell>
                <mxCell id="uq4R98LDvMKcroeYP5Fp-21" value="+ field: type" style="text;strokeColor=none;fillColor=none;align=left;verticalAlign=top;spacingLeft=4;spacingRight=4;overflow=hidden;rotatable=0;points=[[0,0.5],[1,0.5]];portConstraint=eastwest;" parent="uq4R98LDvMKcroeYP5Fp-20" vertex="1">
                    <mxGeometry y="26" width="160" height="26" as="geometry"/>
                </mxCell>
                <mxCell id="uq4R98LDvMKcroeYP5Fp-22" value="" style="line;strokeWidth=1;fillColor=none;align=left;verticalAlign=middle;spacingTop=-1;spacingLeft=3;spacingRight=3;rotatable=0;labelPosition=right;points=[];portConstraint=eastwest;strokeColor=inherit;" parent="uq4R98LDvMKcroeYP5Fp-20" vertex="1">
                    <mxGeometry y="52" width="160" height="8" as="geometry"/>
                </mxCell>
                <mxCell id="uq4R98LDvMKcroeYP5Fp-23" value="+ method(type): type" style="text;strokeColor=none;fillColor=none;align=left;verticalAlign=top;spacingLeft=4;spacingRight=4;overflow=hidden;rotatable=0;points=[[0,0.5],[1,0.5]];portConstraint=eastwest;" parent="uq4R98LDvMKcroeYP5Fp-20" vertex="1">
                    <mxGeometry y="60" width="160" height="26" as="geometry"/>
                </mxCell>
                <mxCell id="uq4R98LDvMKcroeYP5Fp-24" value="&amp;lt;&amp;lt;extend&amp;gt;&amp;gt;" style="html=1;verticalAlign=bottom;labelBackgroundColor=none;endArrow=open;endFill=0;dashed=1;exitX=0.5;exitY=0;exitDx=0;exitDy=0;" parent="1" source="uq4R98LDvMKcroeYP5Fp-20" target="uq4R98LDvMKcroeYP5Fp-1" edge="1">
                    <mxGeometry width="160" relative="1" as="geometry">
                        <mxPoint x="1080" y="470" as="sourcePoint"/>
                        <mxPoint x="1120.1455223880598" y="364" as="targetPoint"/>
                    </mxGeometry>
                </mxCell>
                <mxCell id="uq4R98LDvMKcroeYP5Fp-25" value="RowSocket" style="swimlane;fontStyle=1;align=center;verticalAlign=top;childLayout=stackLayout;horizontal=1;startSize=26;horizontalStack=0;resizeParent=1;resizeParentMax=0;resizeLast=0;collapsible=1;marginBottom=0;" parent="1" vertex="1">
                    <mxGeometry x="1310" y="480" width="160" height="86" as="geometry"/>
                </mxCell>
                <mxCell id="uq4R98LDvMKcroeYP5Fp-26" value="+ field: type" style="text;strokeColor=none;fillColor=none;align=left;verticalAlign=top;spacingLeft=4;spacingRight=4;overflow=hidden;rotatable=0;points=[[0,0.5],[1,0.5]];portConstraint=eastwest;" parent="uq4R98LDvMKcroeYP5Fp-25" vertex="1">
                    <mxGeometry y="26" width="160" height="26" as="geometry"/>
                </mxCell>
                <mxCell id="uq4R98LDvMKcroeYP5Fp-27" value="" style="line;strokeWidth=1;fillColor=none;align=left;verticalAlign=middle;spacingTop=-1;spacingLeft=3;spacingRight=3;rotatable=0;labelPosition=right;points=[];portConstraint=eastwest;strokeColor=inherit;" parent="uq4R98LDvMKcroeYP5Fp-25" vertex="1">
                    <mxGeometry y="52" width="160" height="8" as="geometry"/>
                </mxCell>
                <mxCell id="uq4R98LDvMKcroeYP5Fp-28" value="+ method(type): type" style="text;strokeColor=none;fillColor=none;align=left;verticalAlign=top;spacingLeft=4;spacingRight=4;overflow=hidden;rotatable=0;points=[[0,0.5],[1,0.5]];portConstraint=eastwest;" parent="uq4R98LDvMKcroeYP5Fp-25" vertex="1">
                    <mxGeometry y="60" width="160" height="26" as="geometry"/>
                </mxCell>
                <mxCell id="uq4R98LDvMKcroeYP5Fp-29" value="&amp;lt;&amp;lt;extend&amp;gt;&amp;gt;" style="html=1;verticalAlign=bottom;labelBackgroundColor=none;endArrow=open;endFill=0;dashed=1;" parent="1" source="uq4R98LDvMKcroeYP5Fp-25" target="uq4R98LDvMKcroeYP5Fp-1" edge="1">
                    <mxGeometry width="160" relative="1" as="geometry">
                        <mxPoint x="1472.63" y="459.9960000000001" as="sourcePoint"/>
                        <mxPoint x="1427.3620775894324" y="344.02" as="targetPoint"/>
                    </mxGeometry>
                </mxCell>
            </root>
        </mxGraphModel>
    </diagram>
</mxfile>